<?xml version="1.0" encoding="UTF-8"?>
<svg width="608px" height="515px" viewBox="0 0 608 515" version="1.1" xmlns="http://www.w3.org/2000/svg" xmlns:xlink="http://www.w3.org/1999/xlink">
    <!-- Generator: Sketch 46.2 (44496) - http://www.bohemiancoding.com/sketch -->
    <title>Artboard 2</title>
    <desc>Created with Sketch.</desc>
    <defs></defs>
    <g id="Page-1" stroke="none" stroke-width="1" fill="none" fill-rule="evenodd" stroke-linecap="round">
        <g id="Artboard-2" stroke="#979797">
            <circle id="Oval-2" stroke-width="15" stroke-dasharray="1,1,50" cx="87.5" cy="87.5" r="64.5"></circle>
            <path d="M159.5,85.5 L220.5,85.5" id="Line" stroke-width="15" stroke-dasharray="43,40,38"></path>
            <path d="M346.146156,128 C351.783569,117.499944 355,105.37559 355,92.4623023 C355,52.4424778 324.107648,20 286,20 C247.892352,20 217,52.4424778 217,92.4623023 C217,104.24049 219.675824,115.362346 224.423889,125.193999" id="move" stroke-width="15"></path>
            <path d="M281.053555,489 C281.053555,476.077245 281.053555,464.268589 281.053555,453.574031 C198.86318,334.123883 190.972842,235.40553 186.545932,213.596485 C182.119022,191.78744 205.471512,192.538606 225.607149,222.801026 C245.742786,253.063445 259.556743,302.450936 266.80695,302.901685 C274.057156,303.352434 266.80695,190.864631 266.80695,81.7890573 C268.058882,67.3809099 280.049685,61.5690054 285.259081,62.0247426 C290.468477,62.4804799 301.422584,65.9280803 302.885339,79.7293566 C303.594429,100.345225 304.588523,155.541587 305.867622,245.318443 C305.867622,236.702205 305.867622,230.483558 305.867622,226.662503 C305.867622,220.93092 317.248576,213.596485 326.603452,213.596485 C335.958328,213.596485 339.51213,215.326535 345.196986,226.662503 C345.196986,232.705157 345.196986,240.708719 345.196986,250.673187 L345.196986,235.328312 C348.706079,225.329741 355.003653,220.534667 364.089708,220.943091 C373.175763,221.351515 378.741366,224.851187 380.786518,231.442108 L380.786518,275.313746 L380.786518,261.0254 C385.868998,250.76396 394.057378,246.473231 405.351659,248.153214 C416.645939,249.833196 422.29308,256.982153 422.29308,269.600084 C424.794773,337.545508 420.656608,393.699997 409.878585,438.063551 C408.925054,454.915205 408.925054,471.894021 409.878585,489 L281.053555,489 Z" id="hand" stroke-width="16" stroke-linejoin="round"></path>
        </g>
    </g>
</svg>