<?xml version="1.0" encoding="UTF-8"?>
<svg width="178px" height="178px" viewBox="0 0 178 178" version="1.1" xmlns="http://www.w3.org/2000/svg" xmlns:xlink="http://www.w3.org/1999/xlink">
    <style>
        #ball-animation {
            stroke-dashoffset: 0px;
            stroke-dasharray: 320px;
            animation: ball-draw linear 4s;
            animation-iteration-count: infinite;
            transform-origin: 50% 50%;
            -webkit-animation: ball-draw linear 4s;
            -webkit-animation-iteration-count: infinite;
            -webkit-transform-origin: 50% 50%;
            -moz-animation: ball-draw linear 4s;
            -moz-animation-iteration-count: infinite;
            -moz-transform-origin: 50% 50%;
            -o-animation: ball-draw linear 4s;
            -o-animation-iteration-count: infinite;
            -o-transform-origin: 50% 50%;
            -ms-animation: ball-draw linear 4s;
            -ms-animation-iteration-count: infinite;
            -ms-transform-origin: 50% 50%;

            -webkit-animation-fill-mode: forwards;
            /*Chrome 16+, Safari 4+*/
            -moz-animation-fill-mode: forwards;
            /*FF 5+*/
            -o-animation-fill-mode: forwards;
            /*Not implemented yet*/
            -ms-animation-fill-mode: forwards;
            /*IE 10+*/
            animation-fill-mode: forwards;
            /*when the spec is finished*/
        }

        @-webkit-keyframes ball-draw {
            0% {
                stroke-dashoffset: 0px;
                transform: rotate(360deg);
                -webkit-transform: rotate(360deg);
                -ms-transform:rotate(360deg);
            }
            50% {
                stroke-dashoffset: 320px;
            }
            100% {
                stroke-dashoffset: 0px;
                transform: rotate(0deg);
                -webkit-transform: rotate(0deg);
                -ms-transform: rotate(0deg);
            }
        }
        @keyframes ball-draw {
            0% {
                stroke-dashoffset: 0px;
                transform: rotate(360deg);
                -webkit-transform: rotate(360deg);
                -ms-transform:rotate(360deg);
            }
            50% {
                stroke-dashoffset: 320px;
            }
            100% {
                stroke-dashoffset: 0px;
                transform: rotate(0deg);
                -webkit-transform: rotate(0deg);
                -ms-transform: rotate(0deg);
            }
        }

    </style>
    <defs></defs>
    <g id="Page-1" stroke="none" stroke-width="2" fill="none" fill-rule="evenodd">
        <g id="1420410856" transform="translate(1.000000, 1.000000)" stroke="#a29061">
            <path
                id="ball-animation"
                d="M85,0 C63.8,0.8 44.6,9 29.8,22 L57,22 L85,7.6 L85,0 L85,0 Z M91,0 L91,7.6 L119,22 L146.2,22 C131.4,9 112.2,0.8 91,0 L91,0 Z M23.6,28 C14.6,37.6 7.8,49.2 3.8,62.2 L18.8,88.2 L44.2,84 L63.8,50 L55.4,28 L23.6,28 L23.6,28 Z M120.6,28 L112.2,50 L133.4,86.6 L156,90.2 L172.2,62.2 C168.2,49.2 161.4,37.6 152.4,28 L120.6,28 L120.6,28 Z M70.8,53.6 L50.8,88.4 L69.2,120 L106.8,120 L125.2,88.4 L105.2,53.6 L70.8,53.6 L70.8,53.6 Z M1.8,70.6 C0.6,76.2 -2.88657986e-15,82 -2.88657986e-15,88 C-2.88657986e-15,103 3.8,117 10.4,129.4 L18,124.8 L16.6,96.6 L1.8,70.6 L1.8,70.6 Z M174.2,70.6 L158.2,98.6 L157,124.2 L165.6,129.4 C172.2,117 176,103 176,88 C176,82 175.4,76.2 174.2,70.6 L174.2,70.6 Z M66.6,128 L52.2,145.8 L68.2,173.8 C74.6,175.2 81.2,176 88,176 C94.8,176 101.4,175.2 107.8,173.8 L122.6,147.8 L106.6,128 L66.6,128 L66.6,128 Z M22,129.6 L13.4,134.6 C24,151.6 40.4,164.8 60,171.4 L43.8,143.4 L22,129.6 L22,129.6 Z M155,130.2 L131,145.4 L116,171.4 C135.6,164.8 152,151.6 162.6,134.6 L155,130.2 L155,130.2 Z"></path>
        </g>
    </g>
</svg>
