<?xml version="1.0" encoding="UTF-8"?>
<svg width="2000px" height="1557px" viewBox="0 0 2000 1557" version="1.1" xmlns="http://www.w3.org/2000/svg" xmlns:xlink="http://www.w3.org/1999/xlink">
    <!-- Generator: Sketch 40.1 (33804) - http://www.bohemiancoding.com/sketch -->
    <title>Mask</title>
    <desc>Created with Sketch.</desc>
    <defs></defs>
    <style>
        #path-animation {
            stroke-dashoffset: 0px;
            stroke-dasharray: 200px;
            animation: ball-draw linear 5s;
            animation-iteration-count: 1;
            transform-origin: 50% 50%;
            -webkit-animation: ball-draw linear 5s;
            -webkit-animation-iteration-count: infinite;
            -webkit-transform-origin: 50% 50%;
            -moz-animation: ball-draw linear 5s;
            -moz-animation-iteration-count: infinite;
            -moz-transform-origin: 50% 50%;
            -o-animation: ball-draw linear 5s;
            -o-animation-iteration-count: infinite;
            -o-transform-origin: 50% 50%;
            -ms-animation: ball-draw linear 5s;
            -ms-animation-iteration-count: infinite;
            -ms-transform-origin: 50% 50%;

            -webkit-animation-fill-mode: forwards;
            /*Chrome 16+, Safari 4+*/
            -moz-animation-fill-mode: forwards;
            /*FF 5+*/
            -o-animation-fill-mode: forwards;
            /*Not implemented yet*/
            -ms-animation-fill-mode: forwards;
            /*IE 10+*/
            animation-fill-mode: forwards;
            /*when the spec is finished*/
        }
        @-webkit-keyframes ball-draw {
            from {
                stroke-dashoffset: 5000px;
            }
            to {
                stroke-dashoffset: 0;
            }
        }
        @keyframes ball-draw {
            from {
                stroke-dashoffset: 5000px;
            }
            to {
                stroke-dashoffset: 0;
            }
        }

    </style>
    <g id="Page-1" stroke="none" stroke-width="2" fill="none" fill-rule="evenodd">
        <g id="Mask">
            <rect id="Rectangle" x="0" y="0" width="2000" height="1556.5"></rect>
            <path d="M1593.72098,881.341717 C1598.12254,878.562355 1603.08083,877.326591 1603.08083,877.326591 L1612.48676,875.802818 L1615.16247,873.501363 L1617.46338,877.330207 L1622.83389,879.860274 L1626.32568,879.330561 L1629.16926,883.662841 C1629.16926,883.662841 1641.91258,890.325963 1650.52101,893.24318 C1655.77608,895.024014 1661.01639,896.911934 1661.01639,896.911934 L1673.52272,898.997041 L1681.2377,899.490263 L1684.43461,900.270295 L1688.20348,902.215642 C1688.20348,902.215642 1693.98397,904.137383 1699.01408,908.517751 C1704.14347,912.984573 1708.52184,919.01431 1708.52184,919.01431 C1708.52184,919.01431 1713.77571,924.39093 1716.92894,931.539824 C1719.14151,936.556085 1719.44116,937.667003 1719.25344,943.34462 C1719.08449,948.454315 1718.63245,949.35221 1716.25095,953.341678 C1714.2582,956.679907 1713.67701,956.899804 1710.50493,958.000014 C1704.89986,959.944085 1698.69665,959.43024 1698.69665,959.43024 L1682.00088,957.230557 L1666.85265,954.020888 L1653.16173,953.01875 L1641.91258,954.233166 L1636.58877,955.944728 C1636.58877,955.944728 1631.66796,958.058613 1630.51316,961.590684 C1629.69566,964.091064 1632.64417,968.00963 1632.64417,968.00963 L1629.16926,979.196777 L1623.21764,997.547607 L1615.29705,1015.20079 L1608.68662,1023.48079 L1603.56724,1026.17526 L1598.80493,1027.98414 L1594.76537,1028.30353 L1590.39701,1033.34954 L1586.96839,1036.91981 L1583.51113,1042.00034 L1573.4403,1050.10613 L1555.6337,1058.90682 L1540.18295,1058.69533 L1529.7841,1058.41439 L1508.0582,1048.58453 L1490.11258,1038.65122 L1466.75602,1020.60458 L1450.16658,1005.65066 L1439.47253,1001.76045 L1433.40647,996.508708 L1429.17415,991.582234 L1419.25615,988.740538 L1399.78062,980.781034 L1371.24504,967.419017 L1350.59701,956.698178 L1338.7848,950.946671 L1332.50292,958.61152 L1325.42202,963.964286 L1315.46192,971.257947 L1306.28094,978.857743 L1299.36306,990.650819 L1298.41864,998.259034 L1295.90068,1006.76805 L1290.97956,1014.70383 L1284.19562,1023.26718 L1279.0801,1029.76336 L1269.2968,1034.6309 L1261.31663,1036.85727 L1249.61157,1037.2231 L1245.07006,1041.83119 L1237.62486,1054.04521 L1237.13505,1063.90045 L1234.75026,1068.36007 L1235.47427,1076.57366 L1244.03609,1104.53601 L1247.43342,1117.60644 L1249.85036,1130.43961 L1250.85754,1140.73875 L1250.04399,1151.7175 L1248.54852,1163.94835 L1247.78548,1176.2986 L1248.36331,1185.26605 L1249.82893,1194.70571 L1252.03769,1205.39747 L1253.13212,1214.98944 L1255.06077,1222.20886 L1257.50908,1227.37489 L1260.35384,1229.86912 L1262.14473,1235.07111 L1262.7968,1240.92058 L1264.58462,1246.22743 L1263.32335,1254.19994 L1253.03875,1255.1459 L1249.14854,1254.99972 L1238.62975,1254.38898 L1222.10536,1255.62271 L1204.57149,1256.32988 L1191.40464,1257.29726 L1172.46714,1257.48783 L1157.75507,1256.2809 L1132.61758,1254.67522 L1118.2721,1254.63466 L1110.61108,1254.0905 L1104.52129,1249.61098 L1100.48338,1240.49353 L1101.29234,1234.59584 L1108.21864,1228.71882 L1124.46368,1224.27527 L1149.77107,1221.68307 L1168.21952,1219.56768 L1173.51336,1216.45888 L1177.57347,1215.67059 L1179.55646,1213.87128 L1187.07972,1213.2483 L1190.80538,1210.57574 L1194.9558,1203.97777 L1194.11469,1196.95963 L1190.00637,1189.13176 L1172.67378,1144.08327 L1165.66865,1123.64035 L1165.8929,1116.19516 L1168.25243,1111.01306 L1168.47438,1095.3734 L1169.07746,1087.97183 L1167.43275,1078.42042 L1163.26473,1066.82863 L1160.57457,1060.11739 L1160.58528,1049.22894 L1160.2141,1038.53336 L1163.36958,1026.86503 L1165.2569,1020.92066 L1167.64858,1007.87473 L1166.23883,1000.84051 L1166.61461,993.102193 L1168.05574,979.013106 L1169.14405,972.424321 L1171.41939,966.234276 L1172.86052,961.913183 L1174.31007,957.128297 L1175.74661,954.239915 L1180.78482,942.671848 C1180.78482,942.671848 1186.40279,934.983201 1190.00637,930.214153 C1194.9558,924.41527 1197.79673,920.157932 1197.79673,920.157932 L1199.12765,917.444812 L1202.52269,910.980777 L1203.85361,907.841365 L1204.89217,904.215964 L1205.52051,894.75793 L1206.59811,892.124406 L1209.04259,883.662841 L1208.35302,880.632106 C1208.35302,880.632106 1208.35302,863.464732 1207.47901,860.494561 C1207.49031,857.95862 1208.46476,855.554312 1208.46476,855.554312 L1208.35302,847.974341 L1210.76307,833.534038 L1211.73122,816.455544 C1211.73122,816.455544 1212.49923,805.936519 1212.16746,792.63979 C1212.49923,775.935664 1212.86775,759.232834 1212.86775,759.232834 L1208.79003,743.977373 C1208.79003,743.977373 1209.47091,735.850764 1209.58981,724.725759 C1207.47901,705.110216 1209.58981,669.142729 1209.58981,669.142729 L1211.18707,651.364718 C1211.18707,651.364718 1212.21579,628.775496 1210.83425,626.619079 C1209.58981,624.676667 1203.76376,616.549486 1200.05601,612.905772 C1198.39183,611.270341 1194.29433,611.632056 1189.33976,608.693358 C1187.8678,607.820295 1187.20294,605.282251 1187.20294,605.282251 C1187.20294,605.282251 1187.99215,599.71669 1185.96615,598.616166 C1180.48955,595.641271 1178.90046,598.780713 1172.19774,597.131413 C1169.61462,596.4958 1167.39449,594.04634 1167.39449,594.04634 L1161.93304,588.213707 L1157.7543,585.042916 L1151.25736,582.606849 L1146.21991,578.646995 C1146.21991,578.646995 1143.58135,573.834624 1139.1844,568.848699 C1138.08776,567.605164 1135.23273,566.188076 1135.23273,566.188076 L1125.05528,558.396181 C1125.05528,558.396181 1122.8982,556.714042 1120.59337,556.11165 C1118.52774,555.571777 1118.44068,556.313808 1116.31437,556.11165 C1114.8746,555.974764 1113.46119,555.433561 1113.46119,555.433561 L1109.11025,551.882398 L1102.81306,546.521213 C1102.81306,546.521213 1101.86642,541.729533 1099.98285,541.794492 C1095.73033,541.941149 1094.87018,544.217967 1089.62418,545.497957 C1086.33362,546.300832 1082.90971,545.960221 1082.90971,545.960221 L1079.8453,545.706129 C1079.8453,545.706129 1082.31614,546.537478 1083.91,548.402411 C1084.717,549.346647 1084.64702,551.324467 1084.64702,551.324467 C1081.81397,553.096554 1079.00802,552.616356 1079.00802,552.616356 L1077.60133,548.682524 L1073.58484,546.112523 L1069.83393,542.217723 L1065.04751,542.190937 L1060.64682,543.916771 L1055.14405,545.497957 L1051.82402,546.836532 L1045.59341,546.990364 C1045.59341,546.990364 1044.0864,547.266295 1043.51093,546.306919 C1042.71262,544.976024 1042.9577,543.7485 1043.51093,542.190937 C1044.36515,539.785968 1044.74102,540.094325 1046.76331,538.765598 C1050.1091,536.56727 1049.96965,536.93362 1053.582,535.355713 C1056.65219,534.014625 1059.69092,532.543865 1059.69092,532.543865 L1061.75274,527.180384 L1066.30649,522.292177 L1079.68841,513.415034 C1079.68841,513.415034 1082.61036,510.788759 1085.43838,511.463425 C1089.62418,512.462007 1096.93374,516.026363 1096.93374,516.026363 L1110.08147,522.266921 L1119.17903,523.17308 C1119.17903,523.17308 1134.1381,530.082031 1147.56057,535.355713 C1152.52647,537.306811 1155.95576,537.622641 1155.95576,537.622641 C1155.95576,537.622641 1178.92216,539.571795 1184.45631,540.517332 C1192.72159,542.603718 1200.79762,548.941974 1200.79762,548.941974 L1208.77472,550.050181 C1208.77472,550.050181 1214.56806,550.050181 1215.90384,548.573847 C1219.48667,544.61401 1222.40476,541.421823 1228.50874,534.553338 C1230.96679,531.78742 1241.68661,534.005658 1246.79767,530.340747 C1247.62748,529.745725 1241.68661,520.832797 1241.68661,520.832797 C1241.68661,520.832797 1237.62486,515.424476 1236.44391,514.69163 C1228.43735,509.723112 1219.4619,507.026689 1219.4619,507.026689 L1195.72659,505.828734 L1181.28859,505.358108 L1172.42569,498.242779 L1169.28929,491.624404 L1164.2276,482.317211 L1165.12277,474.020381 L1168.50601,457.416849 L1168.50601,447.519456 L1167.39449,432.390396 L1175.22641,422.593861 L1173.99554,412.845663 L1174.83477,405.088572 L1174.42009,392.81611 L1179.74836,384.292195 L1189.02594,375.514867 L1201.34118,369.064338 L1214.88729,380.237577 L1214.56806,365.37832 L1219.91607,360.635865 L1238.27376,375.106773 L1245.98477,377.548759 L1243.69088,369.804832 L1247.64348,365.885148 C1247.64348,365.885148 1255.39957,355.47563 1263.44728,354.063565 C1269.12011,353.0682 1275.08456,361.070288 1275.08456,361.070288 L1281.57787,359.941445 C1281.57787,359.941445 1286.50659,350.880331 1290.97956,351.001199 C1294.97126,351.109061 1298.50722,360.398906 1298.50722,360.398906 L1312.48776,365.483635 L1319.55372,362.580897 L1325.49742,369.794959 L1334.90335,369.360535 L1336.5851,381.172245 L1345.83634,381.274269 L1356.00251,374.237926 L1364.13807,379.33911 L1369.32812,388.807566 L1369.91393,399.490433 L1369.86127,407.639164 L1365.95146,415.679288 L1376.52901,418.930882 L1373.86982,426.98088 L1368.87395,429.8902 L1375.2784,434.191651 L1373.99817,441.227994 L1371.24024,450.163294 L1371.59567,457.808489 C1371.59567,457.808489 1376.17358,461.675515 1376.3513,461.675515 C1376.52901,461.675515 1373.09641,468.103008 1373.09641,468.103008 L1365.37881,472.361674 L1356.34478,481.395706 C1356.34478,481.395706 1349.3338,480.820193 1343.92751,483.4658 C1342.06708,484.376212 1341.81134,488.507745 1341.81134,488.507745 L1340.13618,499.901487 C1340.13618,499.901487 1337.62185,503.963647 1334.47222,505.552282 C1331.80815,506.896005 1328.50877,505.766203 1328.50877,505.766203 L1326.16881,517.169818 C1326.16881,517.169818 1326.76397,524.380589 1327.76498,524.380589 C1330.18233,524.380589 1337.57242,526.875232 1337.57242,526.875232 L1343.72675,534.553338 L1358.405,549.596895 C1358.405,549.596895 1369.91393,556.875001 1377.22014,560.980763 C1387.88978,566.976621 1396.213,578.973134 1396.213,578.973134 C1396.213,578.973134 1410.16747,590.478819 1422.94906,604.621413 C1429.40802,611.768124 1431.21468,619.402802 1435.99566,628.829805 C1439.84226,636.414429 1444.28591,643.445521 1444.28591,643.445521 L1446.21448,649.185176 L1453.33639,659.506023 L1461.62006,671.630386 L1486.93181,716.112713 L1501.58043,734.753428 L1517.6903,756.402196 L1525.15449,772.489027 L1534.55054,791.369991 C1534.55054,791.369991 1538.88401,802.717827 1544.50229,812.683068 C1548.02501,818.931365 1552.83252,823.797067 1552.83252,823.797067 C1552.83252,823.797067 1555.05285,830.26146 1558.56889,834.963724 C1561.974,839.517641 1567.34245,843.910225 1567.34245,843.910225 C1567.34245,843.910225 1574.36,848.892664 1580.84529,855.554312 C1583.43682,858.216313 1584.82847,860.956726 1584.82847,860.956726 C1584.82847,860.956726 1583.82617,880.553459 1586.96839,887.756613 L1587.15878,898.807058 L1589.20564,909.294391 C1589.20564,909.294391 1590.39701,916.389347 1589.62738,916.967295 C1588.21588,918.027255 1586.50467,918.293657 1584.1391,917.120528 C1582.11363,916.116059 1580.84529,912.6121 1580.84529,912.6121 L1573.54633,911.623816 C1573.54633,911.623816 1569.60716,913.242171 1568.49245,912.633187 C1564.99673,910.723422 1564.98215,900.970597 1564.98215,900.970597 L1558.71927,886.036691 L1551.98404,879.645884 C1551.98404,879.645884 1548.48098,879.037397 1548.31628,880.532949 C1548.06275,882.83519 1551.14758,887.241469 1551.14758,887.241469 L1555.65742,893.955612 C1555.65742,893.955612 1557.18481,900.456963 1555.76566,903.585402 C1554.78158,905.754753 1552.73099,906.082159 1550.85096,904.551192 C1547.22655,901.599737 1544.75678,894.620559 1544.75678,894.620559 L1534.84723,882.166499 L1530.49766,871.288351 L1528.58013,849.92287 C1528.58013,849.92287 1526.01887,839.693978 1521.39879,832.649697 C1512.83449,819.591616 1502.21138,809.718145 1502.21138,809.718145 L1472.58537,773.524192 L1448.6824,742.162005 C1448.6824,742.162005 1445.51803,737.278245 1441.6407,735.336803 C1438.65487,733.841746 1436.5057,735.824584 1434.95608,735.289006 C1433.40647,734.753428 1428.84925,727.731378 1428.84925,727.731378 L1414.94018,711.012094 L1400.67684,698.7675 L1397.71902,698.732355 L1395.18013,724.725759 L1391.8568,761.379411 L1389.54143,775.890169 C1389.54143,775.890169 1391.47811,782.117248 1394.4333,786.945696 C1396.30284,790.000321 1399.1909,791.656314 1399.1909,791.656314 L1403.57843,797.830626 L1403.6684,805.936519 L1407.92941,812.886838 L1407.87318,816.070995 L1412.78367,821.84184 L1413.66089,824.428528 L1416.50344,829.104248 L1417.52687,832.139389 L1424.10324,839.077055 L1426.36097,843.910225 L1423.95985,849.973479 L1430.60792,852.683878 L1430.97343,857.992212 L1434.49919,862.464089 L1441.12477,871.347395 L1447.54651,876.744295 L1470.51461,901.517457 L1491.94054,924.41527 L1510.46207,948.118611 L1521.61857,962.72637 L1530.45689,969.152322 L1536.5089,973.910985 L1536.92642,976.982677 L1543.11198,980.497199 L1545.69586,972.328044 L1556.59369,954.749811 C1556.59369,954.749811 1564.77275,949.71434 1572.69441,944.031925 C1580.10028,938.719509 1587.24875,932.760151 1587.24875,932.760151 L1593.49617,925.854818 L1593.09692,919.348735 L1590.65638,912.008912 L1589.55319,904.886603 L1587.94747,895.373584 L1588.05015,887.897119 L1591.39177,883.740182 L1593.72098,881.341717 L1593.72098,881.341717 Z" id="path-animation" fill="rgba(0,0,0,0)" stroke="rgba(255,255,255,0.2)" ></path>
        </g>
    </g>
</svg>
