<svg width="118px" height="22px" viewBox="-2 51 118 22" version="1.1" xmlns="http://www.w3.org/2000/svg" xmlns:xlink="http://www.w3.org/1999/xlink" preserveAspectRatio="xMidYMin meet">
    <style>
    #Path {
        stroke-dasharray: 300;
        stroke-dashoffset: 300;
        animation: dash 10s linear infinite;
        -webkit-animation-delay: 1s; /* Safari 4.0 - 8.0 */
        animation-delay: 1s;
    }
    #Path-2 {
        stroke-dasharray: 300;
        stroke-dashoffset: 300;
        animation: dash 10s linear infinite;
        -webkit-animation-delay: 1s; /* Safari 4.0 - 8.0 */
        animation-delay: 1s;
    }
    @keyframes dash {
        50% {
        stroke-dashoffset: 0;
        }
        100% {
        stroke-dashoffset: 500;
        }
    }
    @-webkit-keyframes dash {
        50% {
        stroke-dashoffset: 0;
        }
        100% {
        stroke-dashoffset: 500;
        }
    }
    </style>
    <desc>Created with Sketch.</desc>
    <defs></defs>
    <g id="Group-2" stroke="none" stroke-width="1" fill="none" fill-rule="evenodd" transform="translate(0.000000, 52.000000)">
        <path d="M0,9.00349899 C0,9.00349899 29.0460955,9 29.1312884,9.00349899 C29.6072592,9.02304773 31.3036296,9.15181479 33,10 C36.5,12.5 38,12.2280511 38.6112397,12.2280511 C39.2224794,12.2280511 40.4305595,12.1825374 42.5,11 C46.5,8 46.5,7 50,4 C53.0542781,1.38204731 56,0.5 58,0.5 C60.7788125,0.5 62.9179493,1.50520458 64.4564773,3.12494591 L65.1999512,4" id="Path-4" stroke="#eee" stroke-width="3" stroke-linecap="square"></path>
                <path d="M67.42467,11 C67.42467,11.3519508 67.42467,9 67.42467,12.5 C67.42467,16 64.5474919,19.5 60.5,19.5 C56,19.5 53,16 53,12 C53,8 56.5,5 60,5 C63.5,5 66.6118616,7.22416084 69.5,8.5 C73.2812337,10.1703652 74.5,11 76,11 C77.0969356,11 78.6938712,10.2687096 79.5,10 C81,9.5 82,9.5 82,9.5 L114.5,9.5" id="Path-5" stroke="#eee" stroke-width="3" stroke-linecap="square"></path>
    </g>
    <g id="Group" stroke="none" stroke-width="1" fill="none" fill-rule="evenodd" transform="translate(0.000000, 52.000000)">
        <path d="M60.2378,10.6789 C59.3208,10.6789 58.5728,11.4279 58.5728,12.3449 C58.5728,13.2619 59.3208,14.0099 60.2378,14.0099 C61.1548,14.0099 61.9038,13.2619 61.9038,12.3449 C61.9038,11.4279 61.1548,10.6789 60.2378,10.6789 L60.2378,10.6789 Z M60.2378,11.8059 C59.9408,11.8059 59.6988,12.0479 59.6988,12.3449 C59.6988,12.6419 59.9408,12.8839 60.2378,12.8839 C60.5338,12.8839 60.7768,12.6419 60.7768,12.3449 C60.7768,12.0479 60.5338,11.8059 60.2378,11.8059 L60.2378,11.8059 Z M63.7348,12.2459 C62.2948,11.4439 62.0748,9.9369 60.2778,9.9459 C58.4808,9.9539 58.1108,11.6569 56.9008,12.2459 C58.0888,13.1039 58.6418,14.7369 60.3828,14.7429 C62.1248,14.7479 62.5558,13.0549 63.7348,12.2459 L63.7348,12.2459 Z M60.2378,8.2869 C62.4728,8.2869 64.2948,10.1099 64.2948,12.3449 C64.2948,14.5799 62.4728,16.4019 60.2378,16.4019 C58.0028,16.4019 56.1808,14.5799 56.1808,12.3449 C56.1808,10.1099 58.0028,8.2869 60.2378,8.2869 L60.2378,8.2869 Z M63.8158,13.9139 C63.5658,13.8639 63.3768,13.6429 63.3768,13.3779 C63.3768,13.0769 63.6218,12.8319 63.9228,12.8319 C63.9888,12.8319 64.0518,12.8439 64.1098,12.8639 L64.1008,12.9399 L64.0658,13.1319 L64.0218,13.3209 L63.9688,13.5069 L63.9078,13.6889 L63.8368,13.8669 L63.8158,13.9139 Z M63.0188,15.0889 L63.1258,14.9759 L63.2498,14.8339 L63.3658,14.6859 L63.4748,14.5319 L63.5778,14.3729 L63.6718,14.2089 L63.7448,14.0669 C63.6288,13.9499 63.4688,13.8769 63.2918,13.8769 C62.9408,13.8769 62.6548,14.1629 62.6548,14.5139 C62.6548,14.7669 62.8038,14.9859 63.0188,15.0889 L63.0188,15.0889 Z M61.8438,15.9109 C61.7368,15.7959 61.6708,15.6429 61.6708,15.4749 C61.6708,15.1239 61.9568,14.8379 62.3068,14.8379 C62.5658,14.8379 62.7888,14.9929 62.8888,15.2149 L62.8598,15.2419 L62.7178,15.3659 L62.5698,15.4819 L62.4168,15.5909 L62.2578,15.6929 L62.0928,15.7879 L61.9248,15.8739 L61.8438,15.9109 Z M60.4628,16.2539 L60.6288,16.2409 L60.8248,16.2169 L61.0168,16.1819 L61.2058,16.1379 L61.3918,16.0849 L61.5728,16.0229 L61.6818,15.9799 C61.6738,15.6369 61.3908,15.3589 61.0458,15.3589 C60.6948,15.3589 60.4088,15.6449 60.4088,15.9959 C60.4088,16.0879 60.4278,16.1749 60.4628,16.2539 L60.4628,16.2539 Z M59.0238,16.0699 L59.0668,16.0849 L59.2528,16.1379 L59.4418,16.1819 L59.6338,16.2169 L59.8298,16.2409 L60.0288,16.2569 L60.2298,16.2619 L60.2348,16.2619 C60.2718,16.1799 60.2928,16.0899 60.2928,15.9959 C60.2928,15.6449 60.0068,15.3589 59.6558,15.3589 C59.3048,15.3589 59.0188,15.6449 59.0188,15.9959 C59.0188,16.0209 59.0208,16.0459 59.0238,16.0699 L59.0238,16.0699 Z M57.7368,15.3619 L57.7408,15.3659 L57.8888,15.4819 L58.0428,15.5909 L58.2018,15.6929 L58.3658,15.7879 L58.5338,15.8739 L58.7078,15.9529 L58.7748,15.9789 C58.9098,15.8619 58.9958,15.6899 58.9958,15.4969 C58.9958,15.1469 58.7098,14.8609 58.3588,14.8609 C58.0548,14.8609 57.7998,15.0759 57.7368,15.3619 L57.7368,15.3619 Z M56.7888,14.2119 C56.9038,14.0509 57.0928,13.9459 57.3058,13.9459 C57.6558,13.9459 57.9428,14.2319 57.9428,14.5829 C57.9428,14.8539 57.7708,15.0869 57.5318,15.1789 L57.4618,15.1119 L57.3318,14.9759 L57.2088,14.8339 L57.0928,14.6859 L56.9838,14.5319 L56.8808,14.3729 L56.7888,14.2119 Z M56.3658,12.9799 L56.3928,13.1319 L56.4368,13.3209 L56.4898,13.5069 L56.5508,13.6889 L56.6218,13.8669 L56.6818,13.9999 C56.9598,13.9749 57.1798,13.7409 57.1798,13.4559 C57.1798,13.1549 56.9338,12.9099 56.6338,12.9099 C56.5358,12.9099 56.4448,12.9349 56.3658,12.9799 L56.3658,12.9799 Z M61.6818,8.7089 C61.6708,9.0509 61.3888,9.3259 61.0458,9.3259 C60.6948,9.3259 60.4088,9.0399 60.4088,8.6889 C60.4088,8.5989 60.4268,8.5139 60.4608,8.4359 L60.6288,8.4489 L60.8248,8.4739 L61.0168,8.5079 L61.2058,8.5519 L61.3918,8.6049 L61.5728,8.6669 L61.6818,8.7089 Z M62.8868,9.4739 L62.8598,9.4479 L62.7178,9.3249 L62.5698,9.2079 L62.4168,9.0979 L62.2578,8.9959 L62.0928,8.9019 L61.9248,8.8149 L61.8408,8.7779 C61.7348,8.8909 61.6708,9.0439 61.6708,9.2099 C61.6708,9.5609 61.9568,9.8469 62.3068,9.8469 C62.5648,9.8469 62.7868,9.6939 62.8868,9.4739 L62.8868,9.4739 Z M63.7428,10.6189 C63.6278,10.7359 63.4678,10.8079 63.2918,10.8079 C62.9408,10.8079 62.6548,10.5219 62.6548,10.1709 C62.6548,9.9189 62.8028,9.7009 63.0148,9.5979 L63.1258,9.7139 L63.2498,9.8559 L63.3658,10.0039 L63.4748,10.1579 L63.5778,10.3169 L63.6718,10.4809 L63.7428,10.6189 Z M64.1098,11.8199 L64.1008,11.7489 L64.0658,11.5569 L64.0218,11.3679 L63.9688,11.1819 L63.9078,10.9999 L63.8368,10.8229 L63.8138,10.7719 C63.5648,10.8219 63.3768,11.0429 63.3768,11.3059 C63.3768,11.6069 63.6218,11.8529 63.9228,11.8529 C63.9878,11.8529 64.0508,11.8409 64.1098,11.8199 L64.1098,11.8199 Z M56.6838,10.6849 L56.6218,10.8229 L56.5508,10.9999 L56.4898,11.1819 L56.4368,11.3679 L56.3928,11.5569 L56.3668,11.7049 C56.4458,11.7489 56.5368,11.7749 56.6338,11.7749 C56.9338,11.7749 57.1798,11.5299 57.1798,11.2289 C57.1798,10.9449 56.9618,10.7109 56.6838,10.6849 L56.6838,10.6849 Z M57.5358,9.5079 C57.7728,9.6009 57.9428,9.8319 57.9428,10.1019 C57.9428,10.4529 57.6558,10.7389 57.3058,10.7389 C57.0938,10.7389 56.9058,10.6349 56.7898,10.4749 L56.8808,10.3169 L56.9838,10.1579 L57.0928,10.0039 L57.2088,9.8559 L57.3318,9.7139 L57.4618,9.5779 L57.5358,9.5079 Z M58.7788,8.7079 L58.7078,8.7369 L58.5338,8.8149 L58.3658,8.9019 L58.2018,8.9959 L58.0428,9.0979 L57.8888,9.2079 L57.7408,9.3249 L57.7378,9.3269 C57.8018,9.6109 58.0558,9.8239 58.3588,9.8239 C58.7098,9.8239 58.9958,9.5379 58.9958,9.1869 C58.9958,8.9969 58.9118,8.8259 58.7788,8.7079 L58.7788,8.7079 Z M60.2298,8.4289 L60.0278,8.4339 L59.8298,8.4489 L59.6338,8.4739 L59.4418,8.5079 L59.2528,8.5519 L59.0668,8.6049 L59.0228,8.6199 C59.0208,8.6429 59.0188,8.6659 59.0188,8.6889 C59.0188,9.0399 59.3048,9.3259 59.6558,9.3259 C60.0068,9.3259 60.2928,9.0399 60.2928,8.6889 C60.2928,8.5969 60.2728,8.5079 60.2368,8.4289 L60.2298,8.4289 Z" id="Fill-8" fill="#2E3191"></path>
        <path d="M67.42467,11 C67.42467,11.3519508 67.42467,9 67.42467,12.5 C67.42467,16 64.5474919,19.5 60.5,19.5 C56,19.5 53,16 53,12 C53,8 56.5,5 60,5 C63.5,5 66.6118616,7.22416084 69.5,8.5 C73.2812337,10.1703652 74.5,11 76,11 C77.0969356,11 78.6938712,10.2687096 79.5,10 C81,9.5 82,9.5 82,9.5 L114.5,9.5" id="Path-2" stroke="#EC1C24" stroke-width="3" stroke-linecap="square"></path>
        <path d="M0,9.00349899 C0,9.00349899 29.0460955,9 29.1312884,9.00349899 C29.6072592,9.02304773 31.3036296,9.15181479 33,10 C36.5,12.5 38,12.2280511 38.6112397,12.2280511 C39.2224794,12.2280511 40.4305595,12.1825374 42.5,11 C46.5,8 46.5,7 50,4 C53.0542781,1.38204731 56,0.5 58,0.5 C60.7788125,0.5 62.9179493,1.50520458 64.4564773,3.12494591 L65.1999512,4" id="Path" stroke="#EC1C24" stroke-width="3" stroke-linecap="square"></path>
        <path d="M64,7.5 C66.5,8.5 71,10.8499756 71,10.8499756 L70,12 L64,9 C64,9 63.2585076,7.30933182 64,7.5 Z" id="Path-3" fill="#FFFFFF"></path>
        <path d="M58.5,3 C58.5,3 59,1.5 64,3 C65.8024246,3.51497846 68,4.5 68,4.5 L72,8 C72,8 66.4352229,5.37408915 65.5,5 C63,4 62.5,3.5 61,3.5 C59.6199427,3.5 58.5,3 58.5,3 Z" id="Mask" fill="#FFFFFF"></path>
    </g>

</svg>
