<?xml version="1.0" encoding="UTF-8"?>
<svg width="13px" height="21px" viewBox="0 0 13 21" version="1.1" xmlns="http://www.w3.org/2000/svg" xmlns:xlink="http://www.w3.org/1999/xlink">
    <!-- Generator: Sketch 42 (36781) - http://www.bohemiancoding.com/sketch -->
    <title>Artboard 6</title>
    <desc>Created with Sketch.</desc>
    <defs></defs>
    <g id="Page-1" stroke="none" stroke-width="1" fill="none" fill-rule="evenodd">
        <g id="Artboard-6" fill="#70BC46">
            <path d="M2.64228149,6.685 C2.64628149,8.87 4.49528149,10.711 6.67528149,10.7 C8.86528149,10.689 10.6982815,8.848 10.6892815,6.667 C10.6802815,4.47 8.85428149,2.656 6.65628149,2.66 C4.45828149,2.665 2.63828149,4.49 2.64228149,6.685 L2.64228149,6.685 Z M7.37828149,4.97379915e-14 C7.83328149,0.113 8.29828149,0.198 8.74228149,0.344 C12.5932815,1.618 14.4512815,5.93 12.6582815,9.578 C11.0162815,12.921 9.28228149,16.22 7.58828149,19.538 C7.29428149,20.114 7.00128149,20.69 6.66928149,21.338 C6.31628149,20.657 5.99028149,20.038 5.67228149,19.415 C4.04428149,16.223 2.41828149,13.029 0.790281486,9.836 C-1.36771851,5.603 1.08928149,0.802 5.78728149,0.073 C5.84528149,0.064 5.89828149,0.025 5.95328149,4.97379915e-14 L7.37828149,4.97379915e-14 Z" id="Fill-1"></path>
        </g>
    </g>
</svg>