<?xml version="1.0" encoding="UTF-8"?>
<svg width="465px" height="464px" viewBox="0 0 465 464" version="1.1" xmlns="http://www.w3.org/2000/svg" xmlns:xlink="http://www.w3.org/1999/xlink">
    <!-- Generator: Sketch 46.2 (44496) - http://www.bohemiancoding.com/sketch -->
    <title>Artboard</title>
    <desc>Created with Sketch.</desc>
    <defs></defs>
    <g id="Page-1" stroke="none" stroke-width="1" fill="none" fill-rule="evenodd">
        <g id="Artboard" fill-rule="nonzero" fill="#FFFFFF">
            <g id="zoom-in" transform="translate(232.500000, 232.000000) scale(-1, 1) translate(-232.500000, -232.000000) ">
                <path d="M241.84,222.538 C191.037,171.742 191.051,89.095 241.84,38.3 C292.634,-12.495 375.27,-12.495 426.077,38.307 C476.859,89.088 476.873,171.743 426.077,222.538 C375.283,273.319 292.634,273.319 241.84,222.538 Z M406.231,58.153 C366.373,18.302 301.543,18.302 261.685,58.147 C221.841,98.004 221.841,162.835 261.685,202.692 C301.529,242.535 366.373,242.535 406.231,202.692 C446.075,162.834 446.075,97.997 406.231,58.153 Z" id="Shape" opacity="0.809556159"></path>
                <path d="M63.399,455.585 C52.441,466.535 34.663,466.535 23.706,455.571 L8.821,440.684 C-2.145,429.72 -2.145,411.944 8.814,400.978 L174.892,234.9 C185.856,223.95 203.634,223.95 214.599,234.915 L229.477,249.8 C240.441,260.75 240.441,278.542 229.484,289.507 L63.399,455.585 Z" id="Shape" opacity="0.809556159"></path>
                <path d="M346.622,177.801 C346.622,185.558 340.346,191.836 332.588,191.836 L332.588,191.836 C324.831,191.836 318.553,185.558 318.553,177.801 L318.553,88.326 C318.553,80.576 324.831,74.291 332.588,74.291 L332.588,74.291 C340.346,74.291 346.622,80.575 346.622,88.326 L346.622,177.801 Z" id="Shape"></path>
                <path d="M287.852,147.099 C280.094,147.099 273.817,140.822 273.817,133.064 C273.817,125.306 280.094,119.028 287.852,119.028 L377.326,119.028 C385.084,119.028 391.361,125.306 391.361,133.064 C391.361,140.821 385.084,147.099 377.326,147.099 L287.852,147.099 Z" id="Shape"></path>
            </g>
        </g>
    </g>
</svg>