<?xml version="1.0" encoding="UTF-8"?>
<svg width="27px" height="39px" viewBox="0 0 27 39" version="1.1" xmlns="http://www.w3.org/2000/svg" xmlns:xlink="http://www.w3.org/1999/xlink">
    <title>Artboard</title>
    <g id="Artboard" stroke="none" stroke-width="1" fill="none" fill-rule="evenodd">
        <path d="M13.4903082,8.8817842e-14 C6.04173086,8.8817842e-14 -5.31130695e-13,6.03973933 -5.31130695e-13,13.4858613 C-5.31130695e-13,23.6002573 13.4903082,38.5310324 13.4903082,38.5310324 C13.4903082,38.5310324 26.9806163,23.6002573 26.9806163,13.4858613 C26.9806163,6.03973933 20.9388854,8.8817842e-14 13.4903082,8.8817842e-14 L13.4903082,8.8817842e-14 Z M13.4903082,18.3022404 C10.8307903,18.3022404 8.67234095,16.1445026 8.67234095,13.4858613 C8.67234095,10.8272201 10.8307903,8.66948229 13.4903082,8.66948229 C16.149826,8.66948229 18.3082753,10.8272201 18.3082753,13.4858613 C18.3082753,16.1445026 16.149826,18.3022404 13.4903082,18.3022404 L13.4903082,18.3022404 Z" id="Shape" fill="#a6010e"></path>
    </g>
</svg>