<?xml version="1.0" encoding="UTF-8"?>
<svg width="287px" height="254px" viewBox="0 0 287 254" version="1.1" xmlns="http://www.w3.org/2000/svg" xmlns:xlink="http://www.w3.org/1999/xlink">
    <!-- Generator: Sketch 42 (36781) - http://www.bohemiancoding.com/sketch -->
    <title>sym-dark</title>
    <desc>Created with Sketch.</desc>
    <defs>
        <polygon id="path-1" points="286.8747 0 0 0 0 253.098 286.8747 253.098"></polygon>
    </defs>
    <g id="Page-1" stroke="none" stroke-width="1" fill="none" fill-rule="evenodd">
        <g id="sym-dark">
            <g id="Page-1">
                <g id="a">
                    <g id="Page-1">
                        <g id="Fill-1-Clipped">
                            <mask id="mask-2" fill="white">
                                <use xlink:href="#path-1"></use>
                            </mask>
                            <g id="path-1"></g>
                            <path d="M245.7057,155.1642 C251.3167,159.1302 256.0057,164.1302 261.7237,166.0212 C267.7047,167.9992 274.6747,166.9882 281.7987,167.3102 C279.6327,158.5242 275.5527,151.8032 267.7377,147.7432 C258.1057,142.7402 252.7397,150.5422 245.7057,155.1642 M40.9337,155.1522 C33.5867,150.4342 27.8617,142.3992 17.9147,148.1152 C10.5527,152.3462 6.7317,158.9812 4.6247,166.4442 C11.8457,166.4442 18.7047,167.8542 24.5687,166.0442 C30.3357,164.2632 35.0927,159.2132 40.9337,155.1522 M208.0247,197.8282 C213.4957,190.8982 214.2417,178.1342 209.5787,170.7302 C205.7717,164.6842 197.7737,162.2462 188.7937,164.1252 C189.1817,166.7732 189.6077,169.3542 189.9317,171.9472 C190.6297,177.5482 191.3567,183.0832 196.0547,187.1092 C200.0227,190.5092 203.8477,194.0752 208.0247,197.8282 M77.7347,197.9592 C89.8977,189.3512 98.8897,179.4332 96.8277,163.6092 C89.8977,164.5342 80.6207,162.3062 76.0847,172.0322 C71.9137,180.9732 73.7327,189.5612 77.7347,197.9592 M129.6867,107.1752 C129.6997,115.9472 134.7737,122.2822 142.0687,122.6322 C149.9237,123.0092 155.8857,116.9632 156.6177,107.8782 C157.2567,99.9562 151.4197,92.0392 144.3517,91.2412 C136.0437,90.3032 129.6717,97.2272 129.6867,107.1752 M47.7067,118.7342 C47.8387,118.2622 47.9707,117.7902 48.1027,117.3182 C45.4597,112.5302 43.4827,107.1532 39.9477,103.1522 C37.4397,100.3122 32.9537,98.1322 29.1347,97.7382 C16.8167,96.4642 8.0907,103.3082 -0.0003,112.1442 C5.3727,114.3282 10.4097,115.8162 14.8777,118.3202 C22.1997,122.4242 29.3867,122.5622 37.0317,119.6432 C40.3617,118.3712 43.3857,114.5122 47.7067,118.7342 M238.9937,116.8792 C242.3067,117.7082 245.0387,118.5822 247.8387,119.0512 C253.2967,119.9662 259.1357,122.1942 264.1947,121.0722 C271.6587,119.4162 278.5787,115.3102 286.8747,111.7572 C282.5947,108.3152 279.0907,104.9082 275.0497,102.3512 C258.3807,91.8052 243.6367,98.0962 238.9937,116.8792 M198.5707,77.4212 C203.1167,76.9882 207.1917,76.5152 211.2797,76.2312 C217.2007,75.8202 222.7317,74.4662 226.9967,70.0012 C231.8027,64.9692 236.5227,59.8542 241.6947,54.3322 C235.1837,50.6222 227.8877,48.7542 220.1277,49.1112 C212.2527,49.4732 204.5937,51.6852 201.6017,59.6582 C199.3947,65.5402 199.3797,72.2442 198.5707,77.4212 M175.3577,49.1402 C178.5917,48.6282 181.6027,47.5372 184.4917,47.7952 C201.4617,49.3142 206.6047,33.5672 218.4557,25.9532 C207.7277,20.8202 197.7297,18.2932 187.5317,22.2032 C183.4927,23.7512 178.7687,27.4012 177.4217,31.1862 C175.3227,37.0782 175.8397,43.9012 175.3577,49.1402 M70.4647,25.1642 C73.9017,29.4272 77.4297,33.3472 80.4377,37.6322 C86.2557,45.9222 94.5507,48.0072 103.9377,47.6442 C105.8917,47.5682 107.9967,46.3962 109.0047,49.3622 C109.1727,49.8552 110.7197,49.8802 111.6297,50.1212 C111.8167,49.1702 112.2587,48.1842 112.1367,47.2752 C111.8657,45.2582 110.6817,43.1772 110.9857,41.3022 C112.0837,34.5152 109.5217,29.3672 104.6107,25.0852 C96.3827,17.9112 77.0287,19.6702 70.4647,25.1642 M45.1727,54.7732 C49.9007,59.8602 54.3757,65.2182 59.4597,69.9172 C62.0337,72.2972 65.5277,74.2462 68.9227,75.0472 C75.0227,76.4872 81.3627,76.9162 87.5237,77.7562 C87.1437,73.3782 87.0267,68.1112 86.1017,62.9912 C85.6327,60.3942 84.1157,57.7082 82.3657,55.6692 C74.0017,45.9202 52.8957,47.9472 45.1727,54.7732 M37.5187,201.4792 C44.0127,195.6412 50.2517,190.6062 55.8017,184.8992 C62.8307,177.6732 63.2757,168.5942 61.8547,159.2892 C63.4327,158.2882 65.1997,157.1672 66.9677,156.0462 C66.4337,155.4412 65.8987,154.8372 65.3647,154.2332 C61.1587,154.6502 56.9587,155.3392 52.7457,155.4292 C43.7047,155.6212 36.9957,159.6942 34.3057,168.1932 C30.6687,179.6812 32.3657,190.8532 37.5187,201.4792 M248.4827,201.2202 C253.3757,195.4312 255.0907,179.9862 253.5127,172.7582 C250.8797,160.7022 244.0887,155.4922 231.6047,155.4352 C229.0487,155.4232 226.5037,154.5932 223.9397,154.2352 C222.9277,154.0932 221.8787,154.2122 220.8467,154.2122 C220.6827,154.6292 220.5187,155.0472 220.3557,155.4642 C221.9487,156.8452 223.5417,158.2262 225.1277,159.6012 C221.7507,166.6282 224.8037,179.7092 231.2437,185.5992 C236.8857,190.7582 242.5727,195.8682 248.4827,201.2202 M216.1227,139.3902 C216.0577,139.8172 215.9927,140.2442 215.9277,140.6712 C221.7927,143.4402 227.6197,148.4002 233.5307,148.5002 C244.1847,148.6812 254.8887,145.9532 265.5727,144.4402 C265.8887,143.9412 266.2057,143.4432 266.5227,142.9442 C262.2937,138.2102 258.3347,133.1922 253.7617,128.8172 C248.8737,124.1422 242.8767,121.3802 235.9607,120.6842 C221.6927,119.2492 218.0227,132.0392 210.5027,140.3312 C212.3757,140.0182 214.2487,139.7042 216.1227,139.3902 M21.0667,143.6442 C29.3257,145.5302 37.5737,147.5462 45.8827,149.2712 C53.2127,150.7932 65.6917,145.2072 69.4777,139.1902 C71.7407,139.5392 73.8707,139.8672 77.0587,140.3582 C72.3367,134.5652 68.7397,129.7652 64.6927,125.3822 C63.1267,123.6852 60.6567,122.5952 58.3977,121.8042 C45.5067,117.2922 25.1657,129.4662 21.0667,143.6442 M110.9387,106.2382 C111.5137,106.4372 112.0897,106.6362 112.6647,106.8352 C117.1067,100.4312 121.7717,94.1652 125.8437,87.5342 C126.9777,85.6882 126.5887,82.7552 126.4977,80.3352 C125.9937,67.0132 109.9307,51.2912 94.6347,49.0612 C94.3857,49.0252 94.0777,49.3982 94.8847,48.8742 C94.8847,57.2572 95.3537,64.9402 94.7737,72.5422 C93.9257,83.6542 99.7547,91.0792 107.3547,97.7272 C108.4537,98.6892 110.1977,98.9162 111.4537,99.4082 C111.2877,101.6112 111.1127,103.9242 110.9387,106.2382 M174.3067,96.7142 C174.7327,97.2292 175.6637,98.3542 176.7437,99.6592 C183.5277,94.1702 190.1397,88.5432 191.1047,80.2362 C192.2937,69.9972 191.3887,59.5162 191.3887,48.6132 C179.2037,53.0752 167.8847,59.2252 161.7137,72.0082 C158.8397,77.9602 158.1807,84.4682 161.6907,90.2072 C165.2357,96.0032 169.8817,101.1272 174.0457,106.5462 C174.5147,106.5002 174.9847,106.4542 175.4547,106.4082 C175.0637,103.1102 174.6727,99.8112 174.3067,96.7142 M138.8077,55.8302 C139.0247,55.7002 139.2417,55.5702 139.4587,55.4412 C140.6407,57.2842 141.5587,59.4102 143.1097,60.8562 C143.9257,61.6162 146.4257,61.8532 147.1847,61.1952 C157.1887,52.5252 160.5827,38.3852 156.6987,25.8252 C154.0967,17.4112 152.4697,8.6952 150.3787,-0.0008 C138.7297,1.6632 119.5747,21.2052 118.1477,33.7782 C116.7447,46.1362 121.4697,57.2152 134.4467,63.2122 C136.6587,64.2352 138.1447,66.7422 140.1437,68.3392 C141.7337,69.6092 143.5967,70.5382 145.3387,71.6182 C145.0647,69.6162 145.2347,67.4082 144.4227,65.6562 C142.8417,62.2462 140.7107,59.0912 138.8077,55.8302 M256.9267,87.0002 C242.7657,81.0182 227.8067,76.9692 211.7277,81.6232 C196.6057,86.0002 188.9787,96.4462 189.9547,112.0342 C190.2237,116.3292 190.4357,120.2612 188.2057,124.1392 C187.6007,125.1922 188.1137,126.8882 188.1137,128.2882 C188.7767,128.5512 189.4407,128.8152 190.1037,129.0782 C193.1687,124.0612 196.2347,119.0452 199.7637,113.2692 C198.5827,117.1352 197.7157,119.9742 196.8117,122.9322 C210.5467,125.1132 225.3767,121.5392 232.2607,114.2432 C240.5027,105.5082 248.4017,96.4482 256.9267,87.0002 M86.8997,114.2712 C91.7007,118.0842 91.1917,126.0272 99.0027,129.3292 C98.4017,126.3222 97.9757,124.6202 97.7357,122.8922 C97.2957,119.7272 96.2857,116.4512 96.7137,113.3902 C98.3107,101.9742 93.1847,90.5142 82.7397,85.0202 C64.3837,75.3642 46.5867,79.9542 28.1707,87.5202 C29.6877,88.9332 30.5647,89.7122 31.3987,90.5322 C36.9937,96.0352 43.5447,100.8742 47.9567,107.2022 C55.8997,118.5932 66.8167,122.8662 79.7987,123.5722 C90.6427,124.1622 90.6517,124.0032 86.8997,114.2712 M152.0897,250.8012 C155.5867,238.1432 159.2847,225.5362 162.4657,212.7992 C164.1887,205.9022 164.3617,198.8752 160.0007,192.5452 C159.3107,191.5432 158.9747,190.2982 158.2977,189.2842 C148.9337,175.2522 153.3897,161.8452 160.1337,148.5602 C161.6257,145.6222 163.9717,144.3992 167.4457,144.6342 C180.1627,145.4932 191.6027,150.2142 202.7687,155.8582 C204.7737,156.8722 206.7337,157.9732 208.7147,159.0342 C209.1187,158.5842 209.5237,158.1352 209.9277,157.6852 C207.4327,155.1442 205.0467,152.4842 202.4237,150.0832 C190.4107,139.0882 176.8987,130.6182 160.4437,128.7682 C154.5047,128.1012 147.7007,131.9672 142.3187,130.3482 C136.0867,128.4752 130.4997,127.8732 124.4357,129.2112 C106.3907,133.1922 91.9297,142.8312 80.5367,157.2392 C79.9207,158.0192 79.5497,158.9942 79.7557,160.8582 C81.2557,160.0022 82.6987,159.0262 84.2627,158.3122 C93.9457,153.8942 103.4077,148.8142 113.4297,145.3682 C122.5357,142.2382 124.6477,144.3362 128.6757,153.1762 C134.6587,166.3052 134.5387,179.1552 127.2807,191.4812 C122.3537,199.8472 122.8447,208.0972 125.3557,216.7952 C128.7447,228.5322 132.0277,240.3002 135.6507,253.0982" id="Fill-1" fill="#C14793" fill-rule="nonzero" mask="url(#mask-2)"></path>
                        </g>
                    </g>
                </g>
            </g>
        </g>
    </g>
</svg>