<?xml version="1.0" encoding="UTF-8"?>
<svg width="743px" height="523px" viewBox="0 0 743 523" version="1.1" xmlns="http://www.w3.org/2000/svg" xmlns:xlink="http://www.w3.org/1999/xlink">
    <!-- Generator: Sketch 46.2 (44496) - http://www.bohemiancoding.com/sketch -->
    <title>Artboard 2</title>
    <desc>Created with Sketch.</desc>
    <defs></defs>
    <style>
        #Group-3>polygon{
        opacity:0.3;
        }
        #Group-3>polygon:hover{
        opacity:1;
        }
    </style>
    <g id="Page-1" stroke="none" stroke-width="1" fill="none" fill-rule="evenodd">
        <g id="Artboard-2">
            <g id="Group" transform="translate(-275.000000, -387.000000)"></g>
            <g id="Group-2" transform="translate(-90.000000, -35.000000)" fill="#000">
                <g id="Group-3">
                    <polygon id="Rectangle-Copy-4" points="636 387 735 387 636 481"></polygon>
                    <polygon id="Rectangle-Copy-8" transform="translate(689.500000, 434.000000) scale(-1, -1) translate(-689.500000, -434.000000) " points="640 387 739 387 640 481"></polygon>
                    <polygon id="Rectangle-Copy-5" points="530 387 629 387 530 481"></polygon>
                    <polygon id="Rectangle-Copy-9" transform="translate(583.500000, 434.000000) scale(-1, -1) translate(-583.500000, -434.000000) " points="534 387 633 387 534 481"></polygon>
                    <polygon id="Rectangle-Copy-6" points="424 387 523 387 424 481"></polygon>
                    <polygon id="Rectangle-Copy-10" transform="translate(477.500000, 434.000000) scale(-1, -1) translate(-477.500000, -434.000000) " points="428 387 527 387 428 481"></polygon>
                    <polygon id="Rectangle-Copy-7" points="318 387 417 387 318 481"></polygon>
                    <polygon id="Rectangle-Copy-11" transform="translate(371.500000, 434.000000) scale(-1, -1) translate(-371.500000, -434.000000) " points="322 387 421 387 322 481"></polygon>
                    <polygon id="Rectangle-Copy-13" points="212 387 311 387 212 481"></polygon>
                    <polygon id="Rectangle-Copy-12" transform="translate(265.500000, 434.000000) scale(-1, -1) translate(-265.500000, -434.000000) " points="216 387 315 387 216 481"></polygon>
                    <polygon id="Rectangle-Copy-15" points="106 387 205 387 106 481"></polygon>
                    <polygon id="Rectangle-Copy-14" transform="translate(159.500000, 434.000000) scale(-1, -1) translate(-159.500000, -434.000000) " points="110 387 209 387 110 481"></polygon>
                    <polygon id="Rectangle-Copy-17" points="0 387 99 387 0 481"></polygon>
                    <polygon id="Rectangle-Copy-16" transform="translate(53.500000, 434.000000) scale(-1, -1) translate(-53.500000, -434.000000) " points="4 387 103 387 4 481"></polygon>
                    <polygon id="Rectangle-Copy-19" points="742 387 841 387 742 481"></polygon>
                    <polygon id="Rectangle-Copy-18" transform="translate(795.500000, 434.000000) scale(-1, -1) translate(-795.500000, -434.000000) " points="746 387 845 387 746 481"></polygon>
                    <polygon id="Rectangle-Copy-35" points="636 290 735 290 636 384"></polygon>
                    <polygon id="Rectangle-Copy-34" transform="translate(689.500000, 337.000000) scale(-1, -1) translate(-689.500000, -337.000000) " points="640 290 739 290 640 384"></polygon>
                    <polygon id="Rectangle-Copy-33" points="530 290 629 290 530 384"></polygon>
                    <polygon id="Rectangle-Copy-32" transform="translate(583.500000, 337.000000) scale(-1, -1) translate(-583.500000, -337.000000) " points="534 290 633 290 534 384"></polygon>
                    <polygon id="Rectangle-Copy-31" points="424 290 523 290 424 384"></polygon>
                    <polygon id="Rectangle-Copy-30" transform="translate(477.500000, 337.000000) scale(-1, -1) translate(-477.500000, -337.000000) " points="428 290 527 290 428 384"></polygon>
                    <polygon id="Rectangle-Copy-29" points="318 290 417 290 318 384"></polygon>
                    <polygon id="Rectangle-Copy-28" transform="translate(371.500000, 337.000000) scale(-1, -1) translate(-371.500000, -337.000000) " points="322 290 421 290 322 384"></polygon>
                    <polygon id="Rectangle-Copy-27" points="212 290 311 290 212 384"></polygon>
                    <polygon id="Rectangle-Copy-26" transform="translate(265.500000, 337.000000) scale(-1, -1) translate(-265.500000, -337.000000) " points="216 290 315 290 216 384"></polygon>
                    <polygon id="Rectangle-Copy-25" points="106 290 205 290 106 384"></polygon>
                    <polygon id="Rectangle-Copy-24" transform="translate(159.500000, 337.000000) scale(-1, -1) translate(-159.500000, -337.000000) " points="110 290 209 290 110 384"></polygon>
                    <polygon id="Rectangle-Copy-23" points="0 290 99 290 0 384"></polygon>
                    <polygon id="Rectangle-Copy-22" transform="translate(53.500000, 337.000000) scale(-1, -1) translate(-53.500000, -337.000000) " points="4 290 103 290 4 384"></polygon>
                    <polygon id="Rectangle-Copy-21" points="742 290 841 290 742 384"></polygon>
                    <polygon id="Rectangle-Copy-20" transform="translate(795.500000, 337.000000) scale(-1, -1) translate(-795.500000, -337.000000) " points="746 290 845 290 746 384"></polygon>
                    <polygon id="Rectangle-Copy-51" points="636 193 735 193 636 287"></polygon>
                    <polygon id="Rectangle-Copy-50" transform="translate(689.500000, 240.000000) scale(-1, -1) translate(-689.500000, -240.000000) " points="640 193 739 193 640 287"></polygon>
                    <polygon id="Rectangle-Copy-49" points="530 193 629 193 530 287"></polygon>
                    <polygon id="Rectangle-Copy-48" transform="translate(583.500000, 240.000000) scale(-1, -1) translate(-583.500000, -240.000000) " points="534 193 633 193 534 287"></polygon>
                    <polygon id="Rectangle-Copy-47" points="424 193 523 193 424 287"></polygon>
                    <polygon id="Rectangle-Copy-46" transform="translate(477.500000, 240.000000) scale(-1, -1) translate(-477.500000, -240.000000) " points="428 193 527 193 428 287"></polygon>
                    <polygon id="Rectangle-Copy-45" points="318 193 417 193 318 287"></polygon>
                    <polygon id="Rectangle-Copy-44" transform="translate(371.500000, 240.000000) scale(-1, -1) translate(-371.500000, -240.000000) " points="322 193 421 193 322 287"></polygon>
                    <polygon id="Rectangle-Copy-43" points="212 193 311 193 212 287"></polygon>
                    <polygon id="Rectangle-Copy-42" transform="translate(265.500000, 240.000000) scale(-1, -1) translate(-265.500000, -240.000000) " points="216 193 315 193 216 287"></polygon>
                    <polygon id="Rectangle-Copy-41" points="106 193 205 193 106 287"></polygon>
                    <polygon id="Rectangle-Copy-40" transform="translate(159.500000, 240.000000) scale(-1, -1) translate(-159.500000, -240.000000) " points="110 193 209 193 110 287"></polygon>
                    <polygon id="Rectangle-Copy-39" points="0 193 99 193 0 287"></polygon>
                    <polygon id="Rectangle-Copy-38" transform="translate(53.500000, 240.000000) scale(-1, -1) translate(-53.500000, -240.000000) " points="4 193 103 193 4 287"></polygon>
                    <polygon id="Rectangle-Copy-37" points="742 193 841 193 742 287"></polygon>
                    <polygon id="Rectangle-Copy-36" transform="translate(795.500000, 240.000000) scale(-1, -1) translate(-795.500000, -240.000000) " points="746 193 845 193 746 287"></polygon>
                    <polygon id="Rectangle-Copy-67" points="636 96 735 96 636 190"></polygon>
                    <polygon id="Rectangle-Copy-66" transform="translate(689.500000, 143.000000) scale(-1, -1) translate(-689.500000, -143.000000) " points="640 96 739 96 640 190"></polygon>
                    <polygon id="Rectangle-Copy-65" points="530 96 629 96 530 190"></polygon>
                    <polygon id="Rectangle-Copy-64" transform="translate(583.500000, 143.000000) scale(-1, -1) translate(-583.500000, -143.000000) " points="534 96 633 96 534 190"></polygon>
                    <polygon id="Rectangle-Copy-63" points="424 96 523 96 424 190"></polygon>
                    <polygon id="Rectangle-Copy-62" transform="translate(477.500000, 143.000000) scale(-1, -1) translate(-477.500000, -143.000000) " points="428 96 527 96 428 190"></polygon>
                    <polygon id="Rectangle-Copy-61" points="318 96 417 96 318 190"></polygon>
                    <polygon id="Rectangle-Copy-60" transform="translate(371.500000, 143.000000) scale(-1, -1) translate(-371.500000, -143.000000) " points="322 96 421 96 322 190"></polygon>
                    <polygon id="Rectangle-Copy-59" points="212 96 311 96 212 190"></polygon>
                    <polygon id="Rectangle-Copy-58" transform="translate(265.500000, 143.000000) scale(-1, -1) translate(-265.500000, -143.000000) " points="216 96 315 96 216 190"></polygon>
                    <polygon id="Rectangle-Copy-57" points="106 96 205 96 106 190"></polygon>
                    <polygon id="Rectangle-Copy-56" transform="translate(159.500000, 143.000000) scale(-1, -1) translate(-159.500000, -143.000000) " points="110 96 209 96 110 190"></polygon>
                    <polygon id="Rectangle-Copy-55" points="0 96 99 96 0 190"></polygon>
                    <polygon id="Rectangle-Copy-54" transform="translate(53.500000, 143.000000) scale(-1, -1) translate(-53.500000, -143.000000) " points="4 96 103 96 4 190"></polygon>
                    <polygon id="Rectangle-Copy-53" points="742 96 841 96 742 190"></polygon>
                    <polygon id="Rectangle-Copy-52" transform="translate(795.500000, 143.000000) scale(-1, -1) translate(-795.500000, -143.000000) " points="746 96 845 96 746 190"></polygon>
                    <polygon id="Rectangle-Copy-83" points="636 0 735 0 636 94"></polygon>
                    <polygon id="Rectangle-Copy-82" transform="translate(689.500000, 47.000000) scale(-1, -1) translate(-689.500000, -47.000000) " points="640 0 739 0 640 94"></polygon>
                    <polygon id="Rectangle-Copy-81" points="530 0 629 0 530 94"></polygon>
                    <polygon id="Rectangle-Copy-80" transform="translate(583.500000, 47.000000) scale(-1, -1) translate(-583.500000, -47.000000) " points="534 0 633 0 534 94"></polygon>
                    <polygon id="Rectangle-Copy-79" points="424 0 523 0 424 94"></polygon>
                    <polygon id="Rectangle-Copy-78" transform="translate(477.500000, 47.000000) scale(-1, -1) translate(-477.500000, -47.000000) " points="428 0 527 0 428 94"></polygon>
                    <polygon id="Rectangle-Copy-77" points="318 0 417 0 318 94"></polygon>
                    <polygon id="Rectangle-Copy-76" transform="translate(371.500000, 47.000000) scale(-1, -1) translate(-371.500000, -47.000000) " points="322 0 421 0 322 94"></polygon>
                    <polygon id="Rectangle-Copy-75" points="212 0 311 0 212 94"></polygon>
                    <polygon id="Rectangle-Copy-74" transform="translate(265.500000, 47.000000) scale(-1, -1) translate(-265.500000, -47.000000) " points="216 0 315 0 216 94"></polygon>
                    <polygon id="Rectangle-Copy-73" points="106 0 205 0 106 94"></polygon>
                    <polygon id="Rectangle-Copy-72" transform="translate(159.500000, 47.000000) scale(-1, -1) translate(-159.500000, -47.000000) " points="110 0 209 0 110 94"></polygon>
                    <polygon id="Rectangle-Copy-71" points="0 0 99 0 0 94"></polygon>
                    <polygon id="Rectangle-Copy-70" transform="translate(53.500000, 47.000000) scale(-1, -1) translate(-53.500000, -47.000000) " points="4 0 103 0 4 94"></polygon>
                    <polygon id="Rectangle-Copy-69" points="742 0 841 0 742 94"></polygon>
                    <polygon id="Rectangle-Copy-68" transform="translate(795.500000, 47.000000) scale(-1, -1) translate(-795.500000, -47.000000) " points="746 0 845 0 746 94"></polygon>
                    <polygon id="Rectangle-Copy-99" points="636 484 735 484 636 578"></polygon>
                    <polygon id="Rectangle-Copy-98" transform="translate(689.500000, 531.000000) scale(-1, -1) translate(-689.500000, -531.000000) " points="640 484 739 484 640 578"></polygon>
                    <polygon id="Rectangle-Copy-97" points="530 484 629 484 530 578"></polygon>
                    <polygon id="Rectangle-Copy-96" transform="translate(583.500000, 531.000000) scale(-1, -1) translate(-583.500000, -531.000000) " points="534 484 633 484 534 578"></polygon>
                    <polygon id="Rectangle-Copy-95" points="424 484 523 484 424 578"></polygon>
                    <polygon id="Rectangle-Copy-94" transform="translate(477.500000, 531.000000) scale(-1, -1) translate(-477.500000, -531.000000) " points="428 484 527 484 428 578"></polygon>
                    <polygon id="Rectangle-Copy-93" points="318 484 417 484 318 578"></polygon>
                    <polygon id="Rectangle-Copy-92" transform="translate(371.500000, 531.000000) scale(-1, -1) translate(-371.500000, -531.000000) " points="322 484 421 484 322 578"></polygon>
                    <polygon id="Rectangle-Copy-91" points="212 484 311 484 212 578"></polygon>
                    <polygon id="Rectangle-Copy-90" transform="translate(265.500000, 531.000000) scale(-1, -1) translate(-265.500000, -531.000000) " points="216 484 315 484 216 578"></polygon>
                    <polygon id="Rectangle-Copy-89" points="106 484 205 484 106 578"></polygon>
                    <polygon id="Rectangle-Copy-88" transform="translate(159.500000, 531.000000) scale(-1, -1) translate(-159.500000, -531.000000) " points="110 484 209 484 110 578"></polygon>
                    <polygon id="Rectangle-Copy-87" points="0 484 99 484 0 578"></polygon>
                    <polygon id="Rectangle-Copy-86" transform="translate(53.500000, 531.000000) scale(-1, -1) translate(-53.500000, -531.000000) " points="4 484 103 484 4 578"></polygon>
                    <polygon id="Rectangle-Copy-85" points="742 484 841 484 742 578"></polygon>
                    <polygon id="Rectangle-Copy-84" transform="translate(795.500000, 531.000000) scale(-1, -1) translate(-795.500000, -531.000000) " points="746 484 845 484 746 578"></polygon>
                </g>
            </g>
        </g>
    </g>
</svg>
