<?xml version="1.0" encoding="utf-8"?>
<!-- Generator: Adobe Illustrator 19.2.0, SVG Export Plug-In . SVG Version: 6.00 Build 0)  -->
<svg version="1.1" id="Layer_1" xmlns="http://www.w3.org/2000/svg" xmlns:xlink="http://www.w3.org/1999/xlink" x="0px" y="0px"
	 viewBox="0 0 84 84" style="enable-background:new 0 0 84 84;" xml:space="preserve">
<style type="text/css">
	.st0{fill:#EABC44;}
	.st1{fill:#1EA6BC;}
	.st2{fill:#9B2F2D;}
	.st3{fill:#FFFFFF;}
	.st4{fill:#FFFFFF;stroke:#000000;stroke-miterlimit:10;}
	.st5{opacity:0.75;fill:#5E5E5E;}
	.st6{fill:#ED3724;}
	.st7{fill-rule:evenodd;clip-rule:evenodd;fill:#FFFFFF;}
	.st8{fill:#B2B0B2;}
	.st9{fill:#818282;}
	.st10{fill:#3D3F42;}
	.st11{fill:#2C3338;}
	.st12{fill:#1E2326;}
	.st13{fill:#A1A1A1;}
	.st14{fill:url(#SVGID_3_);}
	.st15{fill:url(#SVGID_4_);}
	.st16{fill:#A83A24;}
	.st17{fill:#E82055;}
	.st18{fill:#E9E9E9;}
	.st19{fill:url(#SVGID_5_);}
	.st20{fill:url(#SVGID_6_);}
	.st21{fill:url(#SVGID_7_);}
	.st22{fill:url(#SVGID_8_);}
	.st23{fill:url(#SVGID_9_);}
	.st24{fill:url(#SVGID_10_);}
	.st25{fill:#BF1F3A;}
	.st26{fill:#F6B2C4;}
	.st27{fill:url(#SVGID_11_);}
	.st28{fill:url(#SVGID_12_);}
	.st29{fill:#BD3D49;}
	.st30{fill:#D17677;}
	.st31{fill:url(#SVGID_13_);}
	.st32{fill:url(#SVGID_14_);}
	.st33{fill:#B64C3C;}
	.st34{fill:url(#SVGID_15_);}
	.st35{fill:url(#SVGID_16_);}
	.st36{fill:url(#SVGID_17_);}
	.st37{fill:url(#SVGID_18_);}
	.st38{fill:url(#SVGID_19_);}
	.st39{fill:url(#SVGID_20_);}
	.st40{fill:#CA565F;}
	.st41{fill:url(#SVGID_21_);}
	.st42{fill:url(#SVGID_22_);}
	.st43{fill:url(#SVGID_23_);}
	.st44{fill:url(#SVGID_24_);}
	.st45{fill:url(#SVGID_25_);}
	.st46{fill:url(#SVGID_26_);}
	.st47{fill:url(#SVGID_27_);}
	.st48{fill:url(#SVGID_28_);}
	.st49{fill:url(#SVGID_29_);}
	.st50{fill:#1EB3A9;}
	.st51{fill:#87201A;}
	.st52{fill:#802B19;}
	.st53{fill:#524541;}
	.st54{fill:#332826;}
	.st55{fill:#A28B69;}
	.st56{fill:#524635;}
	.st57{fill:#E4B02C;}
	.st58{fill:#836A46;}
	.st59{fill:#E0DEDD;}
	.st60{fill:#848385;}
	.st61{fill:#59585A;}
	.st62{fill:#A8A6A6;}
	.st63{fill:#7E7D7E;}
	.st64{fill:#E13042;}
	.st65{fill:#28231A;}
	.st66{fill:#ADADAD;}
	.st67{fill:#C4E6E9;}
	.st68{fill:#221F1F;}
	.st69{fill:#FFFFFF;stroke:#FFFFFF;stroke-miterlimit:10;}
	.st70{fill:#F8AC80;}
	.st71{fill:#F69158;}
	.st72{fill:#73BE44;}
	.st73{fill:#5BB547;}
	.st74{fill:#ED6B2A;}
	.st75{fill:#6D2412;}
	.st76{fill:#311111;}
	.st77{fill:#190B0D;}
	.st78{fill:#CCCBCB;}
	.st79{fill:#F2F2F2;}
	.st80{fill:#030202;}
	.st81{fill:#333333;}
	.st82{fill:#4D4E4E;}
	.st83{fill:#18100A;}
	.st84{fill:#F5AC1B;}
	.st85{fill:#A3732A;}
	.st86{fill:#BB264E;}
	.st87{fill:#791214;}
	.st88{fill:#838484;}
	.st89{fill:#EF5C78;}
	.st90{fill:#EE4163;}
	.st91{fill:#CC2033;}
	.st92{fill:#4C1212;}
	.st93{fill:#A61E22;}
	.st94{fill:#EE549D;}
	.st95{fill:#EC2B8D;}
	.st96{fill:#6454A3;}
	.st97{fill:#41180E;}
	.st98{fill:#F7BD3D;}
	.st99{fill:#D69229;}
	.st100{fill:#EB2027;}
	.st101{fill:#EF555A;}
	.st102{fill:#A81F23;}
	.st103{fill:#FDD900;}
	.st104{fill:#F3B919;}
	.st105{fill:#4895D0;}
	.st106{fill:#4276BA;}
	.st107{fill:#BE6A28;}
	.st108{fill:#B8529E;}
	.st109{fill:#8BC540;}
	.st110{fill:#692611;}
	.st111{fill:#F05B26;}
	.st112{fill:#F9EC23;}
	.st113{fill:#381210;}
	.st114{fill:#D8B255;}
	.st115{fill:#DFC075;}
	.st116{fill:#E6CC8D;}
	.st117{fill:#FDE6A4;}
	.st118{fill:#EE4023;}
	.st119{fill:#973720;}
	.st120{fill:#FAB36D;}
	.st121{fill:#F58A47;}
	.st122{fill:#FDDB00;}
	.st123{fill:#FAAB18;}
	.st124{fill:#E4E4E4;}
	.st125{fill:#B2B2B2;}
	.st126{fill:#9760A7;}
	.st127{fill:#8857A2;}
	.st128{fill:#AE81B9;}
	.st129{fill:#B73D58;}
	.st130{fill:#EE7B40;}
	.st131{fill:#7B1E16;}
	.st132{fill:#020303;}
	.st133{fill:#70BE44;}
	.st134{fill:#43A948;}
	.st135{fill:#661E0D;}
	.st136{fill:#E74F24;}
	.st137{fill:#2A100D;}
	.st138{fill:#402312;}
	.st139{fill:#60BA46;}
	.st140{fill:#EB1A42;}
	.st141{fill:#F39D1E;}
	.st142{fill:#A1B3D2;}
	.st143{fill:#F68E1E;}
	.st144{fill:#CC7028;}
	.st145{fill:#F9A651;}
	.st146{fill:#F69029;}
	.st147{fill:#CA5027;}
	.st148{fill:#D3E4F2;}
	.st149{fill:#7A3017;}
	.st150{fill:#E66C24;}
	.st151{fill:#E34D25;}
	.st152{fill:#FFC708;}
	.st153{fill:#F37521;}
	.st154{fill:#EE4823;}
	.st155{fill:#FCED11;}
	.st156{fill:#4386C6;}
	.st157{fill:#20428A;}
	.st158{fill:#F79837;}
	.st159{fill:#BF4C27;}
	.st160{fill:#4562AC;}
	.st161{fill:#314EA1;}
	.st162{fill:#273577;}
	.st163{fill:#BE5A27;}
	.st164{fill:#BC4026;}
	.st165{fill:#872B1B;}
	.st166{fill:#F89C1C;}
	.st167{fill:#E47427;}
	.st168{opacity:0.63;}
	.st169{fill:#31190D;}
	.st170{fill:#F8AC19;}
	.st171{fill:#F7E099;}
	.st172{fill:#F1CF79;}
	.st173{opacity:0.5;}
	.st174{fill:url(#SVGID_30_);}
	.st175{fill:#BC5AA1;}
	.st176{fill:#8C4A9C;}
	.st177{fill:#A5509E;}
	.st178{fill:#D89BC4;}
	.st179{fill:url(#SVGID_31_);}
	.st180{fill:#7BCCF2;}
	.st181{fill:#4188C8;}
	.st182{fill:#326CB4;}
	.st183{fill:url(#SVGID_32_);}
	.st184{fill:#7EC142;}
	.st185{fill:#79A540;}
	.st186{fill:#378A42;}
	.st187{fill:#A7CE38;}
	.st188{fill:url(#SVGID_33_);}
	.st189{fill:#54C8EB;}
	.st190{fill:url(#SVGID_34_);}
	.st191{fill:url(#SVGID_35_);}
	.st192{fill:url(#SVGID_36_);}
	.st193{fill:url(#SVGID_37_);}
	.st194{fill:url(#SVGID_38_);}
	.st195{fill:url(#SVGID_39_);}
	.st196{fill:url(#SVGID_40_);}
	.st197{fill:url(#SVGID_41_);}
	.st198{fill:#F27421;}
	.st199{fill:#2C180C;}
	.st200{fill:#F5871F;}
	.st201{fill:#F3F2DF;}
	.st202{fill:#070504;}
	.st203{fill:#29110B;}
	.st204{fill:#C14127;}
	.st205{fill:#AE3725;}
	.st206{fill:#0A0606;}
	.st207{fill:#CCCAB9;}
	.st208{fill:#96C93D;}
	.st209{fill:#6EBD44;}
	.st210{fill:#4E8C40;}
	.st211{fill:#4A1B0E;}
	.st212{fill:#F4986C;}
	.st213{fill:#F28A57;}
	.st214{fill:#B62029;}
	.st215{fill:#2E6632;}
	.st216{fill:#72AD43;}
	.st217{fill:#AB1D37;}
	.st218{fill:#8B1736;}
	.st219{fill:#CF7DB3;}
	.st220{fill:#B5559F;}
	.st221{fill:#4CB2E4;}
	.st222{fill:#618A3D;}
	.st223{fill:#74BF44;}
	.st224{fill:#AE4625;}
	.st225{fill:#742013;}
	.st226{fill:#5F0A0B;}
	.st227{fill:#D991BE;}
	.st228{fill:#E6BAD6;}
	.st229{fill:#BB58A0;}
	.st230{fill:#E17849;}
	.st231{fill:#541312;}
	.st232{fill:#3B1213;}
	.st233{fill:#1E0C0E;}
	.st234{fill:#351211;}
	.st235{fill:#E5E5E4;}
	.st236{fill:#ED2351;}
	.st237{fill:#FDE500;}
	.st238{fill:#F37D20;}
	.st239{clip-path:url(#SVGID_43_);}
	.st240{fill:#D57F49;}
	.st241{fill:#53C7EA;}
	.st242{fill:#43AEE3;}
	.st243{fill:#4683C4;}
	.st244{fill:#2E368E;}
	.st245{fill:#D1E5AC;}
	.st246{fill:#EE7F3D;}
	.st247{fill:#FFE400;}
	.st248{fill:#FBAE17;}
	.st249{fill:#F6C327;}
	.st250{fill:#3E4FA1;}
	.st251{fill:#38499E;}
	.st252{fill:#2E4098;}
	.st253{fill:#D81E36;}
	.st254{fill:#F69220;}
	.st255{fill:#ED3763;}
	.st256{fill:#F9FAFB;}
	.st257{fill:#EE3E68;}
	.st258{fill:#EE529C;}
	.st259{fill:#EC196E;}
	.st260{fill:#363636;}
	.st261{fill:#161616;}
	.st262{fill:#676767;}
	.st263{fill:#111111;}
	.st264{fill:#FDCE07;}
	.st265{opacity:0.2;}
	.st266{fill:url(#SVGID_44_);}
	.st267{fill:url(#SVGID_45_);}
	.st268{fill:url(#SVGID_46_);}
	.st269{fill:url(#SVGID_47_);}
	.st270{fill:url(#SVGID_48_);}
	.st271{fill:url(#SVGID_49_);}
	.st272{fill:url(#SVGID_50_);}
	.st273{fill:url(#SVGID_51_);}
	.st274{fill:url(#SVGID_52_);}
	.st275{fill:url(#SVGID_53_);}
	.st276{fill:url(#SVGID_54_);}
	.st277{fill:url(#SVGID_55_);}
	.st278{clip-path:url(#SVGID_57_);}
	.st279{fill:#808080;}
	.st280{fill:#EC3793;}
	.st281{fill:#4580C2;}
	.st282{fill:#FACC0B;}
	.st283{fill:#F68D1E;}
	.st284{fill:#F6EB15;}
	.st285{fill:#F16422;}
	.st286{fill:#EE3B24;}
	.st287{fill:#BC3326;}
	.st288{fill:#F47E20;}
	.st289{fill:#47A3DA;}
	.st290{fill:#DD559E;}
	.st291{fill:#DC87B8;}
	.st292{fill:#FFC906;}
	.st293{fill:#31C4F3;}
	.st294{fill:#F7EC3E;}
	.st295{fill-rule:evenodd;clip-rule:evenodd;fill:#42B7E9;}
	.st296{fill-rule:evenodd;clip-rule:evenodd;fill:#F16722;}
	.st297{fill-rule:evenodd;clip-rule:evenodd;fill:#55B848;}
	.st298{fill:#F7971D;}
	.st299{fill:#FCE600;}
	.st300{fill:#3F61AC;}
	.st301{fill:#4890CD;}
	.st302{fill:#68CBE1;}
	.st303{fill:#FDD204;}
	.st304{fill:#F58A1F;}
	.st305{fill:#488BCA;}
	.st306{fill:#4272B7;}
	.st307{fill:#B5E1EB;}
	.st308{fill:#EE4223;}
	.st309{fill:#CC3827;}
	.st310{fill:#FAAD18;}
	.st311{fill:#FAE800;}
	.st312{fill:#FBF5B4;}
	.st313{fill:#69BC45;}
	.st314{fill:#2A803E;}
	.st315{fill:#31582A;}
	.st316{fill:#A4CD39;}
	.st317{fill:#4377BB;}
	.st318{fill:#FCEB06;}
	.st319{fill:#FAA819;}
	.st320{fill:#C95EA2;}
	.st321{fill:#FDD800;}
	.st322{fill:#F5EA14;}
	.st323{fill:#FBB017;}
	.st324{fill:#F16122;}
	.st325{fill:#ED2A24;}
	.st326{fill:#EE4623;}
	.st327{fill:#DA2426;}
	.st328{fill:#8A181B;}
	.st329{fill:#85C340;}
	.st330{fill-rule:evenodd;clip-rule:evenodd;fill:#437CBF;}
	.st331{fill-rule:evenodd;clip-rule:evenodd;fill:#6FCBDC;}
	.st332{fill:#EC2024;}
	.st333{fill:#3B3B3B;}
	.st334{fill:#F16222;}
	.st335{fill:#ED3424;}
	.st336{fill:#D368A7;}
	.st337{fill:#FDD500;}
	.st338{fill:#F48B7A;}
	.st339{fill:#FDD301;}
	.st340{fill:#FCB315;}
	.st341{fill:#FDEB26;}
	.st342{fill:#A72823;}
	.st343{fill:#2CA449;}
	.st344{fill:#6DBD45;}
	.st345{fill:#C869A8;}
	.st346{fill:#D877AF;}
	.st347{fill:#4993CF;}
	.st348{fill:#EE559D;}
	.st349{fill:#ED2868;}
	.st350{fill:#E696C0;}
	.st351{fill:#C52026;}
	.st352{fill:#EC68A6;}
	.st353{fill:#FAEC24;}
	.st354{fill:#FCB912;}
	.st355{fill:#FFC50A;}
	.st356{fill:#F89E1C;}
	.st357{fill:#3CAD49;}
	.st358{fill:#EE4050;}
	.st359{fill:#F27E8F;}
	.st360{fill:#AB1E23;}
	.st361{opacity:0.75;fill:#831D29;}
	.st362{clip-path:url(#SVGID_63_);}
	.st363{fill:url(#SVGID_64_);}
	.st364{fill:#1F417D;}
	.st365{fill:#72CCDC;}
	.st366{fill:#292E6F;}
	.st367{fill:#85D2E0;}
	.st368{fill:url(#SVGID_65_);}
	.st369{fill:#47150D;}
	.st370{fill:#CF4E9B;}
	.st371{fill:#491D13;}
	.st372{fill:#D36CA9;}
	.st373{fill:url(#SVGID_66_);}
	.st374{fill:url(#SVGID_67_);}
	.st375{fill:url(#SVGID_68_);}
	.st376{fill:url(#SVGID_69_);}
	.st377{fill:#064A25;}
	.st378{fill:#BAD531;}
	.st379{fill:#124A2B;}
	.st380{fill:#CBDC54;}
	.st381{fill:#862B1A;}
	.st382{fill:#4D1111;}
	.st383{fill:#E47334;}
	.st384{fill:#F9A61A;}
	.st385{fill:#F6921E;}
	.st386{fill:#8A2E1C;}
	.st387{fill:#742E16;}
	.st388{fill:#AF4C25;}
	.st389{fill:#F7A279;}
	.st390{fill:#2C0F0F;}
	.st391{fill:#F58954;}
	.st392{fill:#722714;}
	.st393{fill:#FAC3A8;}
	.st394{fill:#FCD3BD;}
	.st395{fill:#5A2C0E;}
	.st396{fill:#7E2518;}
	.st397{fill:#391211;}
	.st398{fill:#212120;}
	.st399{fill:#3E3E3E;}
	.st400{fill:#1F0C0D;}
	.st401{fill:#F48120;}
	.st402{fill:#AE3E24;}
	.st403{fill:#ED3971;}
	.st404{fill:#F7A076;}
	.st405{fill:#D15927;}
	.st406{fill:#F05E22;}
	.st407{fill:#386BB3;}
	.st408{fill:#A92D23;}
	.st409{fill:#F79B6E;}
	.st410{fill:#F27030;}
	.st411{fill:#FFD004;}
	.st412{fill:#1B3E6E;}
	.st413{fill:#3F64AE;}
	.st414{fill:#FDDF01;}
	.st415{fill:#741954;}
	.st416{fill:#8F1F1D;}
	.st417{fill:#F7941D;}
	.st418{fill:url(#SVGID_70_);}
	.st419{fill:url(#SVGID_71_);}
	.st420{fill:#4065AE;}
	.st421{fill:#FFFDF7;}
	.st422{fill:#ED428D;}
	.st423{fill:url(#SVGID_72_);}
	.st424{fill:url(#SVGID_73_);}
	.st425{fill:url(#SVGID_74_);}
	.st426{fill:url(#SVGID_75_);}
	.st427{fill:url(#SVGID_76_);}
	.st428{fill:url(#SVGID_77_);}
	.st429{fill:url(#SVGID_78_);}
	.st430{fill:url(#SVGID_79_);}
	.st431{fill:url(#SVGID_80_);}
	.st432{fill:url(#SVGID_81_);}
	.st433{fill:url(#SVGID_82_);}
	.st434{fill:url(#SVGID_83_);}
	.st435{fill:url(#SVGID_84_);}
	.st436{fill:url(#SVGID_85_);}
	.st437{fill:url(#SVGID_86_);}
	.st438{fill:url(#SVGID_87_);}
	.st439{fill:url(#SVGID_88_);}
	.st440{fill:url(#SVGID_89_);}
	.st441{fill:url(#SVGID_90_);}
	.st442{fill:url(#SVGID_91_);}
	.st443{fill:url(#SVGID_92_);}
	.st444{fill:url(#SVGID_93_);}
	.st445{fill:url(#SVGID_94_);}
	.st446{fill:url(#SVGID_95_);}
	.st447{fill:#C16B28;}
	.st448{fill:#CE8529;}
	.st449{fill:#F9A11B;}
	.st450{fill:#690C0D;}
	.st451{fill:#692D12;}
	.st452{fill:#C3955D;}
	.st453{fill:#D3B18B;}
	.st454{fill:#681F0E;}
	.st455{fill:#994021;}
	.st456{fill:#FDE67A;}
	.st457{fill:#D9BC9A;}
	.st458{fill:#AB5D29;}
	.st459{fill:url(#SVGID_96_);}
	.st460{fill:url(#SVGID_97_);}
	.st461{fill:url(#SVGID_98_);}
	.st462{fill:url(#SVGID_99_);}
	.st463{fill:url(#SVGID_100_);}
	.st464{fill:url(#SVGID_101_);}
	.st465{fill:url(#SVGID_102_);}
	.st466{fill:#AB4324;}
	.st467{fill:#522A0F;}
	.st468{opacity:0.75;fill:url(#SVGID_103_);}
	.st469{opacity:0.75;fill:url(#SVGID_104_);}
	.st470{fill:url(#SVGID_105_);}
	.st471{fill:url(#SVGID_106_);}
	.st472{fill:url(#SVGID_107_);}
	.st473{fill:url(#SVGID_108_);}
	.st474{fill:url(#SVGID_109_);}
	.st475{fill:url(#SVGID_110_);}
	.st476{fill:url(#SVGID_111_);}
	.st477{fill:#2359A8;}
	.st478{fill:#71CCDC;}
	.st479{fill:#2B429A;}
	.st480{fill:#80D0DF;}
	.st481{fill:url(#SVGID_112_);}
	.st482{fill:#94211E;}
	.st483{fill:#CF4C9A;}
	.st484{fill:#953220;}
	.st485{fill:#D163A5;}
	.st486{fill:url(#SVGID_113_);}
	.st487{fill:url(#SVGID_114_);}
	.st488{fill:url(#SVGID_115_);}
	.st489{fill:url(#SVGID_116_);}
	.st490{fill:#009548;}
	.st491{fill:#B9D432;}
	.st492{fill:#1C9550;}
	.st493{fill:#C7DA47;}
	.st494{fill:url(#SVGID_117_);}
	.st495{fill:url(#SVGID_118_);}
	.st496{fill:url(#SVGID_119_);}
	.st497{fill:url(#SVGID_120_);}
	.st498{fill:url(#SVGID_121_);}
	.st499{fill:url(#SVGID_122_);}
	.st500{fill:url(#SVGID_123_);}
	.st501{fill:#162951;}
	.st502{fill:#46C1C6;}
	.st503{fill:#151844;}
	.st504{fill:#5CC5C8;}
	.st505{fill:url(#SVGID_124_);}
	.st506{fill:#1E0E0A;}
	.st507{fill:#BD3C95;}
	.st508{fill:#1E100D;}
	.st509{fill:#C0559F;}
	.st510{fill:url(#SVGID_125_);}
	.st511{fill:url(#SVGID_126_);}
	.st512{fill:url(#SVGID_127_);}
	.st513{fill:url(#SVGID_128_);}
	.st514{fill:#091E12;}
	.st515{fill:#0D1E14;}
	.st516{fill:#A5CE4C;}
	.st517{fill:#F8A67A;}
	.st518{fill:#6F2E14;}
	.st519{fill:#F8A57E;}
	.st520{fill:#F37E46;}
	.st521{fill:#F37B46;}
	.st522{fill:#F58B1F;}
	.st523{fill:#934520;}
	.st524{fill:#8E3F1F;}
	.st525{fill:#FFDD00;}
	.st526{fill:url(#SVGID_129_);}
	.st527{fill:url(#SVGID_130_);}
	.st528{fill:url(#SVGID_131_);}
	.st529{fill:url(#SVGID_132_);}
	.st530{fill:url(#SVGID_133_);}
	.st531{fill:url(#SVGID_134_);}
	.st532{fill:url(#SVGID_135_);}
	.st533{fill:url(#SVGID_136_);}
	.st534{fill:url(#SVGID_137_);}
	.st535{fill:url(#SVGID_138_);}
	.st536{fill:url(#SVGID_139_);}
	.st537{fill:url(#SVGID_140_);}
	.st538{fill:url(#SVGID_141_);}
	.st539{fill:url(#SVGID_142_);}
	.st540{fill:url(#SVGID_143_);}
	.st541{fill:url(#SVGID_144_);}
	.st542{fill:url(#SVGID_145_);}
	.st543{fill:url(#SVGID_146_);}
	.st544{fill:url(#SVGID_147_);}
	.st545{fill:#EC186A;}
	.st546{fill:#FBC194;}
	.st547{fill:#F9B796;}
	.st548{fill:#EE4A7D;}
	.st549{fill:url(#SVGID_148_);}
	.st550{fill:url(#SVGID_149_);}
	.st551{fill:url(#SVGID_150_);}
	.st552{fill:url(#SVGID_151_);}
	.st553{fill:url(#SVGID_152_);}
	.st554{fill:url(#SVGID_153_);}
	.st555{fill:url(#SVGID_154_);}
	.st556{fill:url(#SVGID_155_);}
	.st557{fill:url(#SVGID_156_);}
	.st558{fill:url(#SVGID_157_);}
	.st559{fill:url(#SVGID_158_);}
	.st560{fill:url(#SVGID_159_);}
	.st561{fill:url(#SVGID_160_);}
	.st562{fill:url(#SVGID_161_);}
	.st563{fill:url(#SVGID_162_);}
	.st564{fill:url(#SVGID_163_);}
	.st565{fill:url(#SVGID_164_);}
	.st566{fill:url(#SVGID_165_);}
	.st567{fill:url(#SVGID_166_);}
	.st568{fill:url(#SVGID_167_);}
	.st569{fill:url(#SVGID_168_);}
	.st570{fill:url(#SVGID_169_);}
	.st571{fill:url(#SVGID_170_);}
	.st572{fill:url(#SVGID_171_);}
	.st573{fill:url(#SVGID_172_);}
	.st574{fill:url(#SVGID_173_);}
	.st575{fill:url(#SVGID_174_);}
	.st576{fill:url(#SVGID_175_);}
	.st577{fill:url(#SVGID_176_);}
	.st578{fill:url(#SVGID_177_);}
	.st579{fill:url(#SVGID_178_);}
	.st580{fill:#EF5223;}
	.st581{clip-path:url(#SVGID_180_);}
	.st582{fill:url(#SVGID_181_);}
	.st583{fill:url(#SVGID_182_);}
	.st584{fill:url(#SVGID_183_);}
	.st585{fill:url(#SVGID_184_);}
	.st586{fill:url(#SVGID_185_);}
	.st587{fill:url(#SVGID_186_);}
	.st588{fill:url(#SVGID_187_);}
	.st589{fill:url(#SVGID_188_);}
	.st590{fill:url(#SVGID_189_);}
	.st591{fill:url(#SVGID_190_);}
	.st592{fill:url(#SVGID_191_);}
	.st593{fill:url(#SVGID_192_);}
	.st594{fill:url(#SVGID_193_);}
	.st595{fill:url(#SVGID_194_);}
	.st596{fill:url(#SVGID_195_);}
	.st597{fill:url(#SVGID_196_);}
	.st598{fill:url(#SVGID_197_);}
	.st599{fill:url(#SVGID_198_);}
	.st600{fill:url(#SVGID_199_);}
	.st601{fill:url(#SVGID_200_);}
	.st602{fill:url(#SVGID_201_);}
	.st603{fill:url(#SVGID_202_);}
	.st604{fill:url(#SVGID_203_);}
	.st605{fill:url(#SVGID_204_);}
	.st606{fill:url(#SVGID_205_);}
	.st607{fill:url(#SVGID_206_);}
	.st608{fill:url(#SVGID_207_);}
	.st609{fill:url(#SVGID_208_);}
	.st610{fill:url(#SVGID_209_);}
	.st611{fill:url(#SVGID_210_);}
	.st612{fill:url(#SVGID_211_);}
	.st613{fill:url(#SVGID_212_);}
	.st614{fill:url(#SVGID_213_);}
	.st615{fill:url(#SVGID_214_);}
	.st616{fill:url(#SVGID_215_);}
	.st617{fill:url(#SVGID_216_);}
	.st618{fill:url(#SVGID_217_);}
	.st619{fill:url(#SVGID_218_);}
	.st620{fill:url(#SVGID_219_);}
	.st621{opacity:0.75;fill:url(#SVGID_220_);}
	.st622{opacity:0.75;fill:url(#SVGID_221_);}
	.st623{fill:url(#SVGID_222_);}
	.st624{fill:url(#SVGID_223_);}
	.st625{fill:url(#SVGID_224_);}
	.st626{fill:url(#SVGID_225_);}
	.st627{fill:url(#SVGID_226_);}
	.st628{fill:url(#SVGID_227_);}
	.st629{fill:url(#SVGID_228_);}
	.st630{fill:url(#SVGID_229_);}
	.st631{fill:url(#SVGID_230_);}
	.st632{fill:url(#SVGID_231_);}
	.st633{fill:url(#SVGID_232_);}
	.st634{fill:url(#SVGID_233_);}
	.st635{fill:url(#SVGID_234_);}
	.st636{fill:url(#SVGID_235_);}
	.st637{fill:url(#SVGID_236_);}
	.st638{fill:url(#SVGID_237_);}
	.st639{fill:url(#SVGID_238_);}
	.st640{fill:url(#SVGID_239_);}
	.st641{fill:url(#SVGID_240_);}
	.st642{fill:url(#SVGID_241_);}
	.st643{fill:url(#SVGID_242_);}
	.st644{fill:url(#SVGID_243_);}
	.st645{fill:url(#SVGID_244_);}
	.st646{fill:url(#SVGID_245_);}
	.st647{fill:url(#SVGID_246_);}
	.st648{fill:url(#SVGID_247_);}
	.st649{fill:url(#SVGID_248_);}
	.st650{fill:url(#SVGID_249_);}
	.st651{fill:url(#SVGID_250_);}
	.st652{fill:url(#SVGID_251_);}
	.st653{fill:url(#SVGID_252_);}
	.st654{fill:url(#SVGID_253_);}
	.st655{fill:url(#SVGID_254_);}
	.st656{fill:url(#SVGID_255_);}
	.st657{fill:url(#SVGID_256_);}
	.st658{fill:url(#SVGID_257_);}
	.st659{fill:url(#SVGID_258_);}
	.st660{fill:url(#SVGID_259_);}
	.st661{fill:url(#SVGID_260_);}
	.st662{fill:url(#SVGID_261_);}
	.st663{fill:url(#SVGID_262_);}
	.st664{fill:url(#SVGID_263_);}
	.st665{fill:url(#SVGID_264_);}
	.st666{fill:url(#SVGID_265_);}
	.st667{fill:url(#SVGID_266_);}
	.st668{fill:url(#SVGID_267_);}
	.st669{fill:url(#SVGID_268_);}
	.st670{fill:url(#SVGID_269_);}
	.st671{fill:url(#SVGID_270_);}
	.st672{fill:url(#SVGID_271_);}
	.st673{fill:url(#SVGID_272_);}
	.st674{fill:url(#SVGID_273_);}
	.st675{fill:url(#SVGID_274_);}
	.st676{fill:url(#SVGID_275_);}
	.st677{fill:url(#SVGID_276_);}
	.st678{fill:url(#SVGID_277_);}
	.st679{fill:url(#SVGID_278_);}
	.st680{fill:url(#SVGID_279_);}
	.st681{fill:url(#SVGID_280_);}
	.st682{fill:url(#SVGID_281_);}
	.st683{fill:url(#SVGID_282_);}
	.st684{fill:url(#SVGID_283_);}
	.st685{fill:url(#SVGID_284_);}
	.st686{fill:url(#SVGID_285_);}
	.st687{fill:url(#SVGID_286_);}
	.st688{fill:url(#SVGID_287_);}
	.st689{fill:url(#SVGID_288_);}
	.st690{fill:url(#SVGID_289_);}
	.st691{fill:url(#SVGID_290_);}
	.st692{fill:url(#SVGID_291_);}
	.st693{fill:url(#SVGID_292_);}
	.st694{fill:url(#SVGID_293_);}
	.st695{fill:url(#SVGID_294_);}
	.st696{fill:url(#SVGID_295_);}
	.st697{fill:#9C3330;}
	.st698{clip-path:url(#SVGID_299_);}
	.st699{fill:none;}
	.st700{fill:#E3C321;}
	.st701{fill:none;stroke:#FFFFFF;stroke-width:6;stroke-miterlimit:10;}
	.st702{fill:none;stroke:#901E2D;stroke-width:20;stroke-miterlimit:10;}
	.st703{fill:none;stroke:#F0D45C;stroke-width:11;stroke-linecap:round;stroke-miterlimit:10;stroke-dasharray:0,28;}
	/*.st704{fill:#443514;}*/
	.st704{fill:#9d7b31;}
</style>
<g>
	<circle class="st704" cx="42" cy="42" r="42"/>
	<g>
		<g>
			<g>
				<g>
					<g>
						<g>
							<path class="st3" d="M32.7,61.7c-0.1,0,0.2,0.3,0.2,0.4C33,62,32.6,61.6,32.7,61.7z"/>
							<polygon class="st3" points="33.3,60 33.4,60.2 33.3,59.7 							"/>
							<path class="st3" d="M34.4,59.2c-0.6-0.5-0.3,0.4-0.7,0.4l-0.1-0.1l0.3,0.5C34,59.7,34.1,59.1,34.4,59.2z"/>
							<path class="st3" d="M36,59.9c-0.2-0.2,0-0.3-0.2,0c0,0,0,0,0.1,0C35.9,59.9,35.9,59.9,36,59.9z"/>
							<path class="st3" d="M35.8,60C35.7,60.1,36.1,60.1,35.8,60L35.8,60z"/>
							<path class="st3" d="M36.3,59.4l0,0.3c0.1,0.1,0.3,0,0.3,0.2C36.7,59.7,36.5,59.6,36.3,59.4z"/>
							<path class="st3" d="M36.1,58.9l0,0.1C36.1,59.1,36.2,59.1,36.1,58.9z"/>
							<path class="st3" d="M36.1,59.3l0-0.3c-0.1-0.1-0.2-0.3,0,0.1C35.9,59,36,59.2,36.1,59.3z"/>
							<path class="st3" d="M35.9,59.3c-0.2-0.1-0.4,0-0.4-0.4C35.3,59.3,35.7,59.6,35.9,59.3z"/>
							<path class="st3" d="M34,58.5l-0.2-0.1l0,0.3C33.8,58.6,34.1,58.7,34,58.5z"/>
							<path class="st3" d="M37.5,58.9c-0.1-0.1-0.3-0.3-0.4-0.4l0,0.2C37.2,58.8,37.3,58.8,37.5,58.9z"/>
							<path class="st3" d="M37,58.5l0-0.3C36.9,58.3,36.9,58.4,37,58.5z"/>
							<polygon class="st3" points="35.6,58.2 35.7,58.9 35.7,58.2 							"/>
							<polygon class="st3" points="38.1,58.4 38.3,58.8 38.1,58.2 							"/>
							<path class="st3" d="M38.5,58c0.1,0.3,0.4,0.3,0.4,0.5c0.1-0.1,0-0.4,0-0.7C38.9,58.1,38.8,58.1,38.5,58z"/>
							<path class="st3" d="M38.9,57.5c0,0.1,0,0.2,0.1,0.4C39,57.8,38.9,57.7,38.9,57.5z"/>
							<path class="st3" d="M37.4,58c0.1,0.1,0.2,0.2,0.4,0.2L37.4,58C37.4,58,37.4,58,37.4,58z"/>
							<path class="st3" d="M37.4,57.9L37.4,57.9c0.1,0,0.1-0.1,0.2-0.1C37.6,57.9,37.5,57.9,37.4,57.9z"/>
							<path class="st3" d="M37.4,58L37.4,58C37.3,58,37.3,58,37.4,58z"/>
							<path class="st3" d="M36.3,58.2c0-0.3,0-0.6-0.4-0.8C36,57.7,36.3,57.8,36.3,58.2z"/>
							<path class="st3" d="M36.9,57.7l-0.2,0.1c0.1,0.1,0.2,0.2,0.2,0.3L36.9,57.7z"/>
							<polygon class="st3" points="37,57.5 36.9,57.7 37,57.6 							"/>
							<path class="st3" d="M38.3,57.4c0-0.2,0-0.3,0.1-0.4c-0.2,0-0.3,0.1-0.4,0.1C38.1,57.3,38.2,57.5,38.3,57.4z"/>
							<path class="st3" d="M37.9,57.7L37.9,57.7C37.8,57.6,37.8,57.6,37.9,57.7z"/>
							<path class="st3" d="M39.4,56.3C39.4,56.3,39.4,56.3,39.4,56.3L39.4,56.3L39.4,56.3z"/>
							<path class="st3" d="M38,57.2c-0.1,0-0.1,0.1-0.1,0.3C38,57.3,38,57.3,38,57.2C38,57.2,38,57.1,38,57.2z"/>
							<path class="st3" d="M39,57.1c-0.1,0-0.2-0.1-0.3-0.1C38.9,57.1,39.1,57.2,39,57.1z"/>
							<path class="st3" d="M38,57.7L38,57.7C38.1,57.8,38,57.7,38,57.7z"/>
							<path class="st3" d="M38,57.7c0-0.1,0-0.2-0.1-0.3C37.9,57.5,37.9,57.5,38,57.7C37.9,57.6,37.9,57.7,38,57.7z"/>
							<path class="st3" d="M38,53.9c0.2,0.3,0.3,0.8-0.2,0.6c0,0.4,0.9,1.3,1.5,1.7c-0.1-0.1-0.2-0.3-0.2-0.6
								c-0.2-0.1-0.7-0.1-0.8-0.5c0.1-0.3,0.3,0,0.5,0c-0.4-0.3-0.1-0.8-0.6-1.3l0,0.4C38.1,54.2,38.1,54,38,53.9z"/>
							<path class="st3" d="M39,56.5L39,56.5c0.1,0.1,0.2,0.2,0.5,0.3c0-0.2-0.1-0.4-0.1-0.5L39,56.5L39,56.5z"/>
							<path class="st3" d="M38.6,56.9c-0.2-0.4-0.1-0.7-0.5-0.9c-0.2,0.2,0.1,0.4,0.1,0.7C38.4,56.2,38.2,56.8,38.6,56.9
								c-0.1,0.1-0.1,0.1-0.2,0.2c0.1,0,0.2,0,0.3,0l0,0l0,0l0,0c0,0-0.1-0.1,0,0c0,0,0,0,0,0C38.7,56.9,38.6,56.9,38.6,56.9
								c0.2,0,0.1,0.1,0.1,0.1l0,0.1l0,0l0.2-0.5C38.8,56.6,38.7,56.7,38.6,56.9z"/>
							<path class="st3" d="M35.5,56.6C35.5,56.6,35.6,56.6,35.5,56.6C35.6,56.6,35.6,56.5,35.5,56.6z"/>
							<path class="st3" d="M35.8,56.7c0,0.1,0.1,0.2,0,0.2c-0.2,0-0.1-0.2-0.2-0.3c0,0.1,0,0.4,0.3,0.4l0-0.1
								c0.2,0,0.7,0.3,0.8,0.3C36.3,57.1,36.1,56.9,35.8,56.7z"/>
							<path class="st3" d="M37.1,56.7l0.2-0.4l-0.4-0.2l0.1,0.2C36.9,56.3,37.1,56.5,37.1,56.7z"/>
							<polygon class="st3" points="39.6,56.4 39.8,56.8 39.6,56.2 							"/>
							<polygon class="st3" points="39.9,56.1 40.2,56.4 40.1,56.2 							"/>
							<path class="st3" d="M51.4,36.2l-0.1,0C51.4,36.2,51.4,36.2,51.4,36.2z"/>
							<path class="st3" d="M51.7,36.5l0.2-0.1C51.8,36.5,51.7,36.5,51.7,36.5z"/>
							<path class="st3" d="M49.2,48.7c0.4,0.2,0.9,0.5,0.6,0.2l-0.3-0.3C49.4,48.7,49.3,48.7,49.2,48.7z"/>
							<path class="st3" d="M53.4,41c0,0-0.1,0-0.1,0c0.1,0.1,0.2,0.2,0.3,0.3C53.5,41.2,53.4,41.1,53.4,41z"/>
							<path class="st3" d="M51.9,40l0.3,0C52.1,40,52,40,51.9,40z"/>
							<path class="st3" d="M48.2,34.7l-0.3,0.3C48,35.1,48.1,34.9,48.2,34.7z"/>
							<path class="st3" d="M43.7,52.9c0.2,0,0.3,0,0.4,0C43.8,52.8,43.5,52.6,43.7,52.9z"/>
							<path class="st3" d="M54.9,33.2c-0.1,0-0.2,0-0.3,0.1C54.8,33.3,54.9,33.3,54.9,33.2z"/>
							<path class="st3" d="M44.4,52.6c0,0-0.1,0-0.1,0c0,0.1-0.1,0.2-0.2,0.3C44.3,52.9,44.5,52.9,44.4,52.6z"/>
							<path class="st3" d="M34.2,28.3C34.2,28.3,34.2,28.3,34.2,28.3C34.1,28.3,34.1,28.3,34.2,28.3z"/>
							<path class="st3" d="M31.3,22.7c0.1,0,0.1,0,0.2,0C31.5,22.7,31.4,22.7,31.3,22.7z"/>
							<path class="st3" d="M41.6,55C41.5,55.1,41.6,55.1,41.6,55L41.6,55z"/>
							<path class="st3" d="M40.1,54c0-0.1,0-0.1-0.1-0.2C40.1,53.9,40.1,54,40.1,54z"/>
							<path class="st3" d="M43.6,49.9L43.6,49.9C43.5,49.8,43.5,49.8,43.6,49.9z"/>
							<path class="st3" d="M41.3,55c0.1,0,0.1,0,0.2,0C41.5,55,41.4,55,41.3,55z"/>
							<path class="st3" d="M41.5,55.1C41.4,55.1,41.4,55.1,41.5,55.1C41.4,55.2,41.4,55.2,41.5,55.1z"/>
							<path class="st3" d="M41.7,54.9c0,0-0.1,0.1-0.2,0.1c0,0,0.1,0,0.1,0C41.6,55,41.6,55,41.7,54.9z"/>
							<path class="st3" d="M42.3,30.3C42.3,30.3,42.3,30.3,42.3,30.3C42.1,30.4,42.2,30.4,42.3,30.3z"/>
							<path class="st3" d="M48.4,43.5C48.4,43.5,48.5,43.5,48.4,43.5L48.4,43.5L48.4,43.5z"/>
							<path class="st3" d="M48.5,43c0.2,0.5,0.1,0.5,0,0.5l0.9,0.9L48.5,43z"/>
							<path class="st3" d="M50.3,35.5l0,0.4c-0.5,0.4-0.6,0.1-0.7,0.7c0.4-0.6,0.5-0.5,0.7-0.4c0.2,0.1,0.3,0.1,0.7-0.4l-0.1,0.3
								c0,0-0.1,0-0.1,0c-0.2,0.6,0.7-0.7,0.9-0.3c0,0.2-0.1,0.3-0.2,0.4l0.4-0.1c0,0.1-0.2,0.2-0.2,0.2l0.3,0.2l0,0
								c0.2-0.1,0.5-0.2,0.7-0.2c-0.1,0.2-0.1,0-0.3,0.2c0,0,0.1,0,0.2,0c0.1,0,0.2,0,0.2,0c-0.3,0.2-0.6,0.3-0.6,0.2
								c-0.5,0.4-0.4,0.4-0.3,0.4c0.2-0.1,0.4-0.1,0.1,0.2l-0.2,0c-0.7,0.4-0.4,0.3-0.8,0.6c0.2-0.1,1.1-0.6,1.4-0.7
								c-0.1,0.1-0.1,0.1,0.2,0.1c-0.5,0.2-0.3,0.2-0.3,0.3l-0.6,0.1c0.2,0,0.5,0,0.8,0c0,0.1-0.5,0.2-0.9,0.2
								c-0.1,0.1,0.8-0.2,0.9,0c-0.2,0.2,0,0.2,0.4,0.5c-0.3,0.1-0.4-0.1-0.6-0.1l0.5,0.2c0,0-0.2,0-0.2,0c0.2,0.1,0.6,0.1,0.8,0.4
								c0.3,0.1,0.1,0.2-0.2,0.2c-0.3,0-0.5,0.1-0.2,0.3c-0.2,0-0.3-0.2-0.6-0.3c0.3,0.5,0.3,0.4,0.7,1l-0.5,0
								c0.5,0.1,0.9,0.6,1.1,1c0.2,0.1,0.5,0.1,0.6,0.1l0.1,0.6c-0.1,0-0.3-0.2-0.5-0.4c0,0.1,0.1,0.1,0.1,0.1
								c-0.3,0-0.5-0.3-0.8-0.6c0.1,0,0.3,0.1,0.4,0.1c-0.3-0.3-0.6-0.6-0.9-0.8c0,0.1,0.1,0.1,0.1,0.2c-0.1-0.1-0.1-0.1-0.2-0.2
								c-0.1,0,0,0.1,0.1,0.2l-0.6-0.3l0.2,0.2c0,0-0.2,0-0.3,0.1c-0.2,0-0.3,0-0.3,0c0.4,0.7,1,1.6,0.8,2.3c-0.3-0.5-0.6-0.6-1.1-1
								c0.6,0.3,0.1-0.5,0.3-0.6c-0.1,0.1-0.4-0.1-0.4-0.2l0.1,0.8c-0.4-0.3-0.4-0.2-0.6-0.2c0.8,0.6,0.2,0.7,0.3,1.1
								c-0.2-0.2-0.5-0.5-0.2-0.6c-0.7-0.3,0.6,1.1-0.1,0.8c0-0.1,0.1,0,0-0.2c0.1,0.3-0.3,0.4-0.5,0.1l0,0c-0.4,0.2-1,0.9-0.5,1.5
								c-0.1-0.1-0.6-0.8-0.7-1c0,0,0.3,0.7,0.6,1.3c0.3,0.7,0.6,1.4,0.6,1.4c-0.4-0.6-1.7-1.8-1.7-2.4c-0.1,0-0.3,0-0.3,0.3
								c0.1,0,0.8,0.7,0.8,0.8c-0.7-0.5-0.4-0.2-1.1-0.5c0.2,0.1,0.8,1,0.6,1.1c-0.1-0.2-0.7-0.9-0.7-1l0.4,1.2
								c0-0.2-0.6-0.8-0.9-0.9c0.2,0.1-0.3,0.2-0.3,0.4l0.3,0.1c-0.5,0.2,0.6,1.5,0.2,1.8c-0.1-0.2-0.8-1.2-1.1-1.2
								c0.3,0.5,1.3,2.5,1.3,3.1l-0.3-0.2l0,0.5c-0.4-0.8-1.1-2.6-1.3-3.3c-0.3-0.1-0.3-0.3-0.5-0.1c-0.3-0.2-0.2-0.5-0.1-0.5
								l-0.6,0.2c0.4,0.5,0,0.8,0.4,1.3l0.1-1c0.4,0.5,0.9,1.7,0.4,1.9c-0.3-0.1-0.7-1-0.8-1.2c0.1,0.2-0.1,0.6-0.2,0.5l-0.1-0.4
								c-0.4,0,0.2,1-0.4,0.6c-0.1,0-0.8-0.5-0.6-0.2c0.6,0.5,2.1,2.3,2.4,2.8c-0.1,0-0.9-0.2-1.2-0.5c-0.5-0.4-0.7-1.3-1.1-1.6
								c0.1,0.1,0.2,0.4,0.2,0.5c-0.2-0.1-0.3-0.5-0.5-0.3c0.4,0.6-0.4,0.3,0.3,0.5c-0.1,0.3-0.3,0-0.5,0.2c0.3,0.3,0.7,1.3,0.7,1.6
								c-0.1-0.1-0.3-0.3-0.4-0.4c-0.4,0.3-0.8,0.2-1.2,0.4c-0.1-0.1-0.4-0.1-0.5-0.4c0,0.1,0.1,0.4,0,0.5c-0.6-0.3,0.2-0.3-0.4-0.7
								c0.2,0.3,0.1,0.7,0.1,1c0.4,0.4,0.4-0.2,0.4-0.5c0.5,0.7,0.8,1.6,0.7,2.2c-0.2,0.4-0.5-0.3-0.4-0.2c-0.6,0.3,0.5,1.5-0.4,1.4
								c-0.5-0.3-0.7-0.8-1-1.1c0.1-0.3,0.6,0,0.7-0.2l-0.4,0c0-0.2,0-0.4,0.2-0.4c-0.5-0.3-1,0.7-1.7,0.7c0,0.2,0,0.4,0.2,0.6
								l0.1-0.2c0.4,0.2,0.1,0.7,0.4,0.7c0,0.4,0.1,0.9-0.3,0.9l-0.4-0.4c0.1,0.1,0.4,0.2,0.3,0c0.1,0.3-0.9-0.3-0.5,0.4l0.4,0.2
								c0,0.4,0.2,1.1-0.1,1.1c0.5,0.4,0-0.1,0.6,0.3c-0.7-0.6,0.6-0.4-0.2-1c0.7,0.5,0.5,0,1.1,0.4c-0.1-0.2-0.3-0.2-0.1-0.3
								c0-0.1-0.1-0.1-0.1-0.2c0,0,0,0,0,0l0,0c0,0,0,0,0,0c-0.1,0-0.2-0.1-0.3-0.2c-0.2-0.4,0.1-0.7,0.1-0.9c0.2,0,0.1,0.2,0.3,0.3
								l-0.1-0.4c0.3,0.3,0.8,0.3,0.7,0.8l0.2-0.2c0.3,0.1,0.5,0,0.6-0.2c0.2,0,0-0.6,0.1-0.3l0.2-0.5l0.1,0.1
								c0.4-0.2,0.3-1.2,1.2-0.9c0.1-0.2,0.1-0.4,0.4-0.5l0.3,0.3c0.1-0.2,0.7-0.1,0.5-0.4c0.8,0.7,0.9-0.4,1.3-0.5L46.5,51
								c0.2-0.1,0.3-0.4,0.4-0.7L46.6,50c0-0.5,0.7-0.2,1-0.5c0.1,0.2,0,0.2-0.1,0.1c1,0.5,0.4-1.2,1.2-0.9c0-0.2,0.1-0.2,0.2-0.2
								c0,0,0,0,0,0c0,0,0,0,0,0c0.1,0,0.2,0.1,0.3,0.1c-0.1-0.1-0.2-0.1-0.3-0.1c0.1-0.1,0.1-0.2,0.2-0.4l0.3,0.3c0,0,0,0,0,0
								c0.2,0.1-0.1-0.2-0.3-0.5c0-0.1,0-0.2,0-0.3c0.6,0.5,0.1-0.4,0.7,0.1c-0.2-0.4,0.3-0.6-0.2-1.3c0.1,0.1,0.1,0.1,0.1,0.2
								c0.2,0,0.3,0,0.3-0.3l0.4,0.4L50.2,46c0.4,0.2,0.6,0.3,0.7,0.8c-0.1-0.9,0.1-0.5,0-1.3l0.2,0.3c0.1-0.1-0.1-0.7,0.2-0.5
								c0.8,0.3,1.3-1,2.4-1.2c-1-0.6,0.7,0,0-0.6c0.2,0.1,0.4,0.1,0.5,0.4c0.1-0.5,0.8-0.3,0.4-1c0.3,0.1,0.3,0.3,0.4,0.4
								c0-0.1-0.1-0.3,0.1-0.2c0.2,0.1,0.1,0.2,0.2,0.3c0.3-0.4-0.4-1-1.1-1.4c0.4,0,0.5-0.1,0.1-0.5c0.3,0.1,0.6,0.1,0.5,0.4
								c0.1-0.1,0.9-0.7,0.3-1c0.2,0,0.1-0.2,0.1-0.3c0.2-0.3,0.3-0.4,0.3-0.7l-0.1,0.1c-0.7-0.4,0-0.3-0.1-0.7l0.1,0
								c0.7-0.6-0.2-0.3,0.5-1l-0.5,0c-0.5-0.1-0.3-0.2-0.1-0.4c0.2-0.2,0.5-0.5,0.3-0.7l-0.3,0.2c-0.2-0.1,0.2-0.3,0.5-0.5
								c0.4-0.2,0.8-0.5,0.8-0.7c0.1-0.1,0.2,0.1,0.2,0.1c0.4-0.9-0.6,0-0.9-0.4c0.3-0.2,0.9-0.1,0.8-0.5c0.1-0.1-0.3-0.3-0.6-0.5
								c-0.3-0.2-0.7-0.4-0.5-0.8c-0.2,0.2-0.3,0.5-0.6,0.4c-0.2-0.2,0.2-1.4-0.6-1.1c0-0.1,0.1-0.1,0.1-0.2c-0.3,0-0.8-0.3-1.2,0
								c0.4-0.7,0-0.8-0.4-0.8c-0.4,0-0.8,0-0.3-0.6l-0.6-0.3l0.1-0.1c-0.3-0.3-0.6,0-0.9,0.2c0-0.1,0.1-0.2,0.1-0.3
								c-0.4-0.5-0.5-0.5-1.2,0l0.2-0.5c-0.2,0.2-0.4-1.1-1.2-0.8c0,0,0.1-0.1,0.2-0.2c-0.8,0.2-0.8-1.9-1.8-0.4L47,29.7
								c0.4,0.4-0.4,0.7-0.3,1c-0.2,0-0.3-0.7,0-0.7l0,0.1c0.5-0.8-0.5-0.6-0.2-1.2c-1-0.4-1.7-1.3-2.6-1.7L43.7,28l-0.3-0.2
								c0-0.2,0.1-0.6,0.3-0.4c0-0.4-0.5,0.2-0.6,0.3c-0.3-0.5,0.5-0.7,0.4-0.8l-0.2,0l0,0.1c-0.3,0.2-0.4,0.5-0.7,0.3
								c-0.1-0.2,0.1-0.5,0-0.5c0,0,0-0.1-0.1-0.1l-0.4-0.2l-0.1,0.6c-0.3,0.2-0.4-0.2-0.4,0.5c0.1-1-1.4-1-1.4-1.3
								c-0.4,0.3-0.7,0.2-0.9,0c0,0.1-0.2,0.8-0.4,0.6c0.6-1.2-0.3-0.7-0.1-1.7c0,0.7-0.8-0.1-0.8,0.8c-0.2-0.2,0.2-0.5,0.1-0.8
								c-0.7,0.3-1-0.8-1.8-0.8c-0.1,0.2-0.1,0.5-0.3,0.6l0-1c-0.2,0-0.5,0.9-0.5,0.2c0,0.2,0,0.4-0.1,0.4c-1-1.3-2.9-0.3-3.7-2.2
								c0.1,0.4-0.1,0.4-0.2,0.3c0.1,0.1-0.1,0.4-0.2,0.6l-0.3-0.8c-0.3,0.6-0.6-0.1-0.9,0.4l0.2-0.1c-0.5,0.6-0.2,1.7-0.5,2.6
								c0.5-0.7,0.3,1.4,1.1,0.4c0,0.2-0.2,0.3-0.2,0.5c0.2-0.4,0.4-0.4,0.6-0.1l-0.1,0.1c0.7,0.1,0.9,0.6,1.5,1.1l0.1-0.5
								c0.1,0.1,0.1,0.3,0.2,0.4c0.4-0.6-0.4-0.2,0-0.9c-0.1,1,1.1,0.4,0.9,1.5c0.2,0.1,0.1-0.5,0.4-0.4l0,0.3l0.2-0.3
								c0.1,0.1,0.1,0.5,0,0.7c0,0-0.1,0-0.2,0c0.1,0.4,0.6,0.1,0.7,0.2l-0.2-0.3c0.8,0,1.4,0.7,2.3,0.3l0-0.2
								c0.6-0.2,0.3,0.4,0.9,0.4l0,0c0.2-0.2,0.4-0.2,0.5-0.1c-0.2,0.2,0.1,0.6-0.2,0.8c0.7-0.2,0.4-0.2,1-0.9l-0.1,0.4
								c0.2-0.3,0.3-0.4,0.6-0.4c-0.3,0.2,0,0.6-0.4,0.9c0.2,1,1.1-0.4,0.9,0.8c0.7-0.8-0.3-0.7,0-0.9c0-0.4,0.5-0.6,0.6-0.5
								c0.2,0.1-0.2,1.3,0.3,1.5c0,0-0.1,0-0.1,0c0.1,0.3,0.5-0.2,0.5,0.3c0.4-0.5,0.3,0.1,0.6-0.6l-0.5,0c0.3-0.1,0.9-0.8,1.1-0.3
								c-0.1,0.1-0.3,0.3-0.4,0.4c0,0.3,0.3,0,0.3,0.2c-0.3,0.7-0.6-0.1-1.1,0.4c0,0.4,0.7-0.3,0.2,0.4c0.6-0.9,0.4,0.3,1-0.3
								l-0.2,0.4c0.1,0,0.3-0.2,0.3-0.2l-0.4,0.5c0.5-0.4,0.3,0.6,0.6,0.5c-0.5-0.2,0.1-0.6,0.1-1c0.9-0.3-0.2,1.3,0.6,1.4
								c-0.1,0-0.2-0.4,0-0.5c0.1,0.1,0.2,0.4,0.2,0.7c0.5,0.1,0.1-0.5,0.4-0.7c-0.1,0.6,0.3-0.1,0.6-0.2l-0.2,0.4
								c0.4,0.5,0.6-0.9,0.9-0.3l-0.5,0.5l0.3,0L45.2,33c0.4-0.2,0.5-0.1,0.6,0.1c0.1-0.3,0.4-0.8,0.6-0.7c0,0.3-0.3,0.4,0.1,0.5
								c-0.2,0.2-0.4,0.5-0.4,0.1c-0.1,0.1-0.2,0.2-0.3,0.4c0,0.4,0.4,0.3,0.5,0.3c0,0-0.1-0.1-0.1-0.2l0.7-0.4
								c0,0.2-0.1,0.3-0.2,0.4c0.1,0,0.3-0.2,0.4-0.1c-0.2,0.3-0.4,0.7-0.6,0.8l0.6-0.2c0,0.2,0,0.5-0.1,0.6c0.1,0.3,0.9-0.4,1.1,0
								c0.1-0.1,0.1-0.1,0.2-0.1c0.3,0.2,0.3,0.8,0.9,0.5l-0.1,0.7c0.3,0,0.2-0.9,0.7-0.9c0.4,0-0.2,0.6-0.2,0.8
								c0.3-0.2,0.9-0.7,0.8-0.1C50.4,35.6,50.4,35.5,50.3,35.5z M52.2,36.9c-0.1,0-0.4,0.1-0.2-0.1C52.5,36.6,52.3,36.8,52.2,36.9z
								 M52.3,41c-0.1-0.1,0-0.2,0.2-0.1C52.5,40.9,52.4,41,52.3,41z M42.2,54C42.2,54,42.2,54,42.2,54C42.4,54,42.3,54,42.2,54z
								 M41.8,54.1c0,0.1,0.1,0.1,0.1,0.2c-0.1-0.1,0-0.2,0.1-0.2C41.9,54,41.8,53.9,41.8,54.1z M42.6,26.9l0,0.1
								C42.4,27.1,42.5,27,42.6,26.9z"/>
							<path class="st3" d="M52.1,40.1c0.1,0,0.2,0.1,0.2,0.1C52.3,40.2,52.2,40.1,52.1,40.1z"/>
							<path class="st3" d="M48.2,34.7C48.2,34.7,48.2,34.6,48.2,34.7C48.2,34.7,48.2,34.7,48.2,34.7L48.2,34.7z"/>
							<path class="st3" d="M43.4,47.5c0.1,0,0.2,0.1,0.3,0.1C43.6,47.5,43.6,47.5,43.4,47.5z"/>
							<path class="st3" d="M40.9,55.9l0.1-0.2c-0.1,0.1-0.2,0-0.3,0C40.8,55.7,40.9,55.8,40.9,55.9z"/>
							<path class="st3" d="M37.5,54.7c0,0.1,0,0,0,0.1l0.1,0.2C37.7,54.9,37.7,54.7,37.5,54.7z"/>
							<path class="st3" d="M39.7,54.7c-0.3-0.3-0.3-0.1-0.4,0c0,0,0,0,0,0C39.7,55.2,39.7,55,39.7,54.7z"/>
							<path class="st3" d="M39.3,54.8c0,0-0.1,0.1-0.1,0.1C39.3,55.1,39.3,54.9,39.3,54.8z"/>
							<path class="st3" d="M41.6,54.6c-0.1,0,0.3,0.4,0.2,0.3C42,55.4,41.8,54.1,41.6,54.6z"/>
							<polygon class="st3" points="38.8,53.8 39.1,54.1 38.9,53.8 							"/>
							<path class="st3" d="M40,53.3l-0.3,0c0.1,0.1,0.1,0.1,0.1,0.2C39.9,53.4,40.1,53.4,40,53.3z"/>
							<path class="st3" d="M39.7,53.5c-0.1,0-0.1,0.1-0.1,0.2C39.7,53.7,39.7,53.6,39.7,53.5z"/>
							<polygon class="st3" points="38.9,53.4 39.1,53.5 39.2,53.4 							"/>
							<path class="st3" d="M42.1,51.7l0.1-0.3c-0.1-0.2-0.2-0.2-0.2-0.1C42,51.5,42,51.6,42.1,51.7z"/>
							<path class="st3" d="M40.6,51.1c0.1,0,0.2,0.1,0.3,0.2l-0.4-0.5L40.6,51.1z"/>
							<path class="st3" d="M41.1,50.5c-0.1-0.2,0-0.6-0.2-0.4C41,50.3,40.9,50.6,41.1,50.5z"/>
							<polygon class="st3" points="44.8,48.6 44.8,48.6 45.4,49.4 							"/>
							<path class="st3" d="M46.1,44.4c-0.4,0,0.3,0.5-0.1,0.5c0.1,0.2,0.3,0,0.4,0.3C46.5,44.9,46.6,44.9,46.1,44.4z"/>
							<path class="st3" d="M46.5,45.2c0,0.1,0,0.1,0,0.2C46.5,45.3,46.5,45.2,46.5,45.2z"/>
							<polygon class="st3" points="30.7,22 30.6,21.7 30.6,22.1 							"/>
							<path class="st3" d="M30.1,22.6l0.1-0.6L30,22.5C30,22.4,30.1,22.4,30.1,22.6z"/>
							<path class="st3" d="M51,37.6l0.2,0c0.2-0.1,0.2-0.1,0.2-0.1L51,37.6z"/>
							<polygon class="st3" points="50.9,36.5 50.9,36.6 51.2,36.1 							"/>
							<path class="st3" d="M49.1,36.3c0.1,0.1,0.2,0,0.2,0C49.2,36.3,49.5,35.6,49.1,36.3z"/>
						</g>
					</g>
				</g>
			</g>
		</g>
	</g>
</g>
</svg>
