<?xml version="1.0" encoding="UTF-8"?>
<svg width="40px" height="35px" viewBox="0 0 40 35" version="1.1" xmlns="http://www.w3.org/2000/svg" xmlns:xlink="http://www.w3.org/1999/xlink">
    <!-- Generator: Sketch 42 (36781) - http://www.bohemiancoding.com/sketch -->
    <title>Artboard</title>
    <desc>Created with Sketch.</desc>
    <style>
    #Fill-1 {
-webkit-animation-duration: 2s;
animation-duration: 2s;
-webkit-animation-fill-mode: both;
animation-fill-mode: both;
-webkit-animation-iteration-count: infinite;
animation-iteration-count: infinite;
-webkit-animation-name: lipo;
animation-name: lipo;
opacity:1;
transform-origin:center center;
-webkit-transform-origin:center center;
}

@-webkit-keyframes lipo {
0%{
transform:scale(1);
}
50%{
transform:scale(0.8);
opacity:0.8
}
100%{
transform:scale(1);
opacity:1
}
}
@keyframes lipo {
0%{
transform:scale(1);
}
50%{
transform:scale(0.8);
opacity:0.8
}
100%{
transform:scale(1);
opacity:1
}
}
</style>
    <defs></defs>
    <g id="Page-1" stroke="none" stroke-width="1" fill="none" fill-rule="evenodd">
        <g id="Artboard" fill="#C14793">
            <path d="M19.9297698,7.11564627 C20.4437698,5.37164627 21.3837698,4.10864627 22.6367698,3.07064627 C24.6157698,1.43064627 26.8927698,0.815646273 29.4417698,1.05664627 C31.2107698,1.22364627 32.9107698,1.58964627 34.4327698,2.54264627 C36.9387698,4.11264627 38.0797698,6.52364627 38.6047698,9.32964627 C39.5527698,14.3956463 37.7687698,18.7016463 34.8617698,22.6596463 C32.6857698,25.6236463 29.8637698,27.9586463 26.9887698,30.1956463 C25.1417698,31.6326463 23.1277698,32.8526463 21.1937698,34.1766463 C20.3587698,34.7486463 19.5637698,34.7026463 18.6827698,34.2126463 C14.9737698,32.1446463 11.7517698,29.4436463 8.63176976,26.6016463 C6.67376976,24.8186463 4.90276976,22.8836463 3.57676976,20.5726463 C2.06376976,17.9356463 0.867769756,15.1726463 1.01176976,12.0676463 C1.08676976,10.4646463 1.31176976,8.81864627 1.79076976,7.29264627 C2.98576976,3.48264627 5.82776976,1.61564627 9.68376976,1.12564627 C11.2457698,0.926646273 12.8007698,0.915646273 14.3007698,1.45364627 C16.9877698,2.41864627 18.9037698,4.18964627 19.9297698,7.11564627" id="Fill-1"></path>
        </g>
    </g>
</svg>
