<?xml version="1.0" encoding="UTF-8"?>
<svg width="216px" height="220px" viewBox="0 0 216 220" version="1.1" xmlns="http://www.w3.org/2000/svg" xmlns:xlink="http://www.w3.org/1999/xlink">
    <!-- Generator: Sketch 42 (36781) - http://www.bohemiancoding.com/sketch -->
    <title>Artboard 7 Copy</title>
    <desc>Created with Sketch.</desc>
    <defs></defs>
    <style>
        #a {
            -webkit-animation-duration: 1.5s;
            animation-duration: 1.5s;
            -webkit-animation-fill-mode: both;
            animation-fill-mode: both;
            -webkit-animation-iteration-count: infinite;
            animation-iteration-count: infinite;
            -webkit-animation-name: wheel;
            animation-name: wheel;
            animation-delay:2.2s;
            -webkit-animation-delay:2.2s;
            transform-origin: center center;
            -webkit-animation-timing-function: linear;
            /* Safari 4.0 - 8.0 */
            animation-timing-function: linear;
        }
        #b  {
            -webkit-animation-duration: 1s;
            animation-duration: 1s;
            animation-delay: 0s;
            -webkit-animation-fill-mode: both;
            animation-fill-mode: both;
            -webkit-animation-iteration-count: forward;
            animation-iteration-count: forward;
            -webkit-animation-name: scene;
            animation-name: scene;
            transform: translate(0px, -250px);
        }
        #c  {
        -webkit-animation-duration: 1s;
        animation-duration: 1s;
        animation-delay: 0.5s;
        -webkit-animation-fill-mode: both;
        animation-fill-mode: both;
        -webkit-animation-iteration-count: forward;
        animation-iteration-count: forward;
        -webkit-animation-name: scene;
        animation-name: scene;
        transform: translate(0px, -250px);
        }
        #d  {
        -webkit-animation-duration: 1s;
        animation-duration: 1s;
        animation-delay: 0.8s;
        -webkit-animation-fill-mode: both;
        animation-fill-mode: both;
        -webkit-animation-iteration-count: forward;
        animation-iteration-count: forward;
        -webkit-animation-name: scene;
        animation-name: scene;
        transform: translate(0px, -250px);
        }
        #e  {
        -webkit-animation-duration: 1s;
        animation-duration: 1s;
        animation-delay: 1.2s;
        -webkit-animation-fill-mode: both;
        animation-fill-mode: both;
        -webkit-animation-iteration-count: forward;
        animation-iteration-count: forward;
        -webkit-animation-name: scene;
        animation-name: scene;
        transform: translate(0px, -250px);
        }
        @-webkit-keyframes wheel {
            0% {
                transform: rotate(0);
                -webkit-transform: rotate(0);
            }
            100% {
                transform: rotate(360deg);
                -webkit-transform: rotate(360deg);
            }
        }
        @keyframes wheel {
            0% {
                transform: rotate(0deg);
                -webkit-transform: rotate(0deg);
            }
            100% {
                transform: rotate(360deg);
                -webkit-transform: rotate(360deg);
            }
        }
        @-webkit-keyframes scene {
            100% {
                transform: rotate(0deg);
                -webkit-transform: rotate(0deg);
            }
        }
        @keyframes scene {
            100% {
                transform: translate(0, 0);
                -webkit-transform:  translate(0, 0);
            }
        }

    </style>
    <g id="Page-1" stroke="none" stroke-width="1" fill="none" fill-rule="evenodd">
        <g id="Artboard-7-Copy" fill="#FFFFFF">
            <g id="kulchaking-logo">
                <g id="Layer_1">
                    <g id="Group">
                        <g id="b">
                        <g transform="translate(26.000000, 55.000000)" >
                            <path d="M99.8,32.7 C100,33.6 101.5,41.2 100.7,42.1 L95,48.6 C95.4,48.7 95.9,48.9 96.3,49 C99.4,45.3 105.2,39.6 105.2,39.6 C104.7,37.7 105.8,34.5 105.8,34.5 C107.1,35.6 113.9,36.6 119.6,37.3 C112.5,36 105.9,34.4 99.8,32.7 L99.8,32.7 Z M111.5,57.1 L121,46.9 C121,46.9 129.8,47 131.6,46.9 C131.6,46.9 134.4,44.3 133,39.4 C131.6,39.2 130.2,39 128.7,38.8 C128.8,39.3 128.5,39.9 128.5,39.9 C127.7,42.6 120.3,44.2 120.3,44.2 C118.6,45.1 112.5,51.3 108.8,55.2 C109.7,55.8 110.6,56.4 111.5,57.1 Z M28.9,70.9 C31.6,66.9 39.5,56.9 53.4,50 C39.4,56.9 31.6,66.9 28.9,70.9 Z M27.6,72.6 L27.7,72.7 L27.6,72.6 Z M0.9,28.4 L16.6,43 C16.6,43 14.1,66.8 24.2,75.6 C24.2,75.6 23.8,76.3 23.2,77.7 C24.3,75.6 25.5,73.6 26.8,71.6 C24.4,68.2 22.4,60.5 22.4,60.5 C15,34.9 38.7,28.2 38.7,28.2 C45.9,27.2 37.9,34.3 37.9,34.3 L40.6,36.7 C48.8,28.2 41.9,25.5 41.9,25.5 C31.7,21.5 18.1,40.5 18.1,40.5 L6.4,25.8 C23.2,7.1 33.6,5.3 33.6,5.3 C43.2,3.4 41.3,13.1 41.3,13.1 C41.1,15 44.8,16.3 45,17.1 C45.2,17.9 47.2,22.5 47.2,22.5 C49.1,23.6 55.4,25.5 55.4,25.5 L55.9,29.8 C55.9,34.8 66.5,31.9 66.5,31.9 L74.2,43.4 C66.3,44.6 59.4,46.9 53.7,49.7 C60.7,46.8 68.4,45.2 76.4,45.2 C77.9,45.2 79.3,45.3 80.7,45.4 C81.3,45.3 82,45.3 82,45.3 C82,45.3 66.9,25.1 65.5,24.6 C65.5,24.6 57,25.4 56.1,24.7 L49.4,21.5 C49.4,21.5 48.5,17.5 47.1,15.7 L46.9,14.2 C46.9,14.2 49.7,-0.1 39.3,0.9 C39,1.1 12.5,7.1 0.9,28.4 Z" id="Shape"></path>
                        </g>
                        </g>
                        <g id="a">
                        <g transform="translate(42.000000, 100.000000)">
                            <path d="M58.9,5.6 C86.5,5.6 108.9,28.4 108.9,56.5 C108.9,84.6 86.5,107.4 58.9,107.4 C50.4,107.4 42.4,105.2 35.4,101.4 C47.1,92.1 54.7,77.6 54.7,61.2 C54.7,41.7 44,24.8 28.2,16.3 C36.6,9.6 47.3,5.6 58.9,5.6 L58.9,5.6 Z M17,25.1 C32.1,27.3 44.4,40.5 46.2,57.8 C48,74.6 39.2,90.1 25.7,96.4 C16.3,88.1 9.8,75.8 8.3,61.6 C6.9,48.2 10.3,35.3 17,25.1 Z M60.1,0.5 C93.1,0.5 119.8,27.2 119.8,60.2 C119.8,93.2 93.1,119.9 60.1,119.9 C27.1,119.9 0.4,93.2 0.4,60.2 C0.4,47.7 4.2,36.2 10.7,26.6 C11,27 11.4,27.4 11.7,27.7 C11.7,27.7 19.5,13.8 37.4,5 C44.4,2.1 52.1,0.5 60.1,0.5 Z" id="Shape"></path>
                        </g>
                        </g>
                        <g id="c">
                        <g transform="translate(0.000000, 30.000000)" >
                            <path d="M15.2,30 C15.2,30 2.9,35.3 0.6,46.9 C-1.7,58.5 13.5,63.1 17.3,63.1 C21.2,63.1 6.7,56.8 9.2,46.9 C11.7,37 15.7,37 20.5,33.2 C20.5,33.2 14.3,20 25.6,11.2 C36.9,2.4 49,10.1 51.5,13.5 C70.2,-1.5 82.1,14.6 76.9,28.1 C90.8,6.3 70.4,-8.2 52.2,6.6 C52.2,6.6 36.3,-6.4 22.4,4.1 C22.5,4.1 10.3,11.7 15.2,30" id="Shape"></path>
                        </g>
                        </g>
                        <g id="e">
                        <g transform="translate(142.000000, 0.000000)" >
                            <path d="M20.9,52.6 C27.4,28 -4.6,27 1.7,9.4 C6.5,1.4 17.4,0.9 23.1,7.6 C28.9,14.3 21.3,21.3 17.2,18.6 C17.2,18.6 23,16.5 20.2,10.6 C17.5,4.7 11.6,7.6 10.4,8 C9.3,8.5 4,12.2 8.8,18.4 C22.1,33 26.5,33.5 20.9,52.6" id="Shape"></path>
                            <path d="M28.4,51.5 C28.4,51.5 34.5,51.7 32.6,36.2 C30.7,20.7 27,5.8 38.2,1.8 C49.4,-2.2 58.3,1.5 61.9,9.8 C65.4,18.1 62.7,34.1 45.9,35.2 C45.9,35.2 57.9,28.2 57.9,19.9 C57.9,11.6 53.7,8.4 49.4,7.1 C45.1,5.8 37.1,5.2 36,15.7 C34.8,26.2 43.9,52.1 28.4,51.5" id="Shape"></path>
                        </g>
                        </g>
                        <g id="d" >
                        <g transform="translate(89.000000, 55.000000)">
                            <path d="M28,3.6 C28,3.6 6.3,5.7 9.8,13.8 C34.4,50.5 173.4,34.5 96.1,14.4 C96.1,14.4 94.1,21.1 71.3,19.6 C71.3,19.6 35.9,15.4 28,3.6 L28,3.6 Z M69,3.3 C103.8,9.5 129,22.9 126.4,32.1 C123.8,41.4 93.4,43.8 58.6,37.6 C23.8,31.4 -2.3,18.8 0.4,9.6 C3.1,0.4 34.2,-2.9 69,3.3 Z" id="Shape"></path>
                        </g>
                        </g>
                    </g>
                </g>
            </g>
        </g>
    </g>
</svg>
